<?xml version="1.0" encoding="UTF-8"?>
<svg id="Layer_1" data-name="Layer 1" xmlns="http://www.w3.org/2000/svg" viewBox="0 0 167.62 68.6">
  <defs>
    <style>
      .cls-1 {
        fill: #542680;
      }

      .cls-2 {
        fill: #f9b52b;
      }
    </style>
  </defs>
  <g>
    <g>
      <polygon class="cls-2" points="39.08 12.89 36.4 7.8 34.98 8.99 34.14 12.89 30.7 12.89 33.39 .37 36.83 .37 35.9 4.69 40.75 .37 45.48 .37 39.05 5.68 42.95 12.89 39.08 12.89"/>
      <path class="cls-1" d="M44.45.74l-5.87,4.85,3.75,6.93h-3.03l-2.79-5.3-1.87,1.57-.8,3.73h-2.69l2.53-11.79h2.69l-1.06,4.94h.03l5.54-4.94h3.56M46.5,0h-5.89l-.21.19-3.9,3.47.6-2.77.19-.89h-4.19l-.13.58-2.53,11.79-.19.89h4.19l.13-.58.75-3.48.97-.82,2.36,4.49.21.39h4.71l-.59-1.09-3.46-6.4,5.4-4.47,1.58-1.3h0Z"/>
    </g>
    <g>
      <path class="cls-2" d="M47.79,13.1c-1.31,0-2.39-.34-3.19-1-.82-.68-1.24-1.7-1.24-3.03,0-.77.13-1.5.37-2.18.25-.68.61-1.29,1.08-1.81.47-.52,1.05-.94,1.72-1.24.67-.3,1.44-.45,2.27-.45.64,0,1.23.08,1.77.24.55.16,1.04.41,1.44.74.41.33.73.76.95,1.26.22.5.33,1.09.33,1.75,0,.79-.12,1.54-.37,2.23-.25.7-.62,1.32-1.09,1.83-.48.52-1.06.93-1.74,1.23-.68.29-1.45.44-2.31.44ZM48.73,5.89c-.37,0-.68.09-.94.28-.28.21-.52.47-.69.77-.19.32-.33.67-.42,1.05-.09.38-.14.74-.14,1.08,0,.21.03.42.09.61.06.19.15.35.26.48.12.14.25.24.43.33.16.08.36.12.59.12.38,0,.69-.09.96-.28.28-.21.52-.47.7-.78.19-.32.34-.68.43-1.06.1-.39.14-.75.14-1.08,0-.48-.11-.87-.32-1.14-.19-.25-.56-.37-1.09-.37Z"/>
      <path class="cls-1" d="M48.82,3.76c.6,0,1.16.07,1.67.22.51.15.94.37,1.31.67.36.3.65.67.85,1.12.2.45.3.99.3,1.6,0,.75-.12,1.45-.35,2.11-.23.65-.57,1.22-1.02,1.71-.44.48-.98.86-1.62,1.14-.63.27-1.36.41-2.16.41-1.23,0-2.22-.3-2.95-.92-.74-.61-1.1-1.53-1.1-2.75,0-.73.12-1.41.35-2.06.23-.64.57-1.21,1.01-1.69.44-.48.97-.87,1.6-1.15.63-.28,1.33-.42,2.12-.42M47.91,10.99c.46,0,.85-.12,1.17-.35.33-.24.59-.53.8-.89.21-.36.37-.75.47-1.16.1-.42.15-.81.15-1.17,0-.57-.13-1.03-.4-1.37-.27-.34-.73-.51-1.38-.51-.44,0-.83.12-1.16.35-.33.24-.59.53-.8.88-.21.35-.36.73-.46,1.15-.1.41-.15.8-.15,1.16,0,.25.04.5.11.73.07.23.19.43.33.61.15.18.33.32.55.42.22.1.47.16.75.16M48.82,3.02c-.89,0-1.7.16-2.42.49-.72.32-1.34.77-1.84,1.33-.5.55-.89,1.21-1.16,1.94-.26.72-.39,1.5-.39,2.31,0,1.45.46,2.56,1.37,3.32.87.72,2.02,1.09,3.42,1.09.91,0,1.73-.16,2.46-.47.73-.31,1.35-.76,1.87-1.32.51-.55.9-1.21,1.17-1.96.26-.73.39-1.53.39-2.35,0-.72-.12-1.35-.36-1.9-.25-.56-.6-1.03-1.06-1.4-.44-.36-.97-.63-1.57-.8-.57-.17-1.2-.25-1.88-.25h0ZM47.91,10.25c-.17,0-.32-.03-.43-.08-.12-.06-.22-.14-.3-.23-.09-.11-.15-.22-.2-.36-.05-.16-.08-.32-.08-.5,0-.3.04-.64.13-.99.09-.34.21-.66.38-.95.15-.26.35-.48.59-.66.2-.14.43-.21.72-.21s.65.04.8.23c.16.21.25.51.25.91,0,.3-.04.64-.13,1-.09.35-.22.67-.39.96-.16.27-.36.49-.6.67-.2.14-.44.21-.74.21h0Z"/>
    </g>
    <g>
      <path class="cls-2" d="M58.84,13.1c-.67,0-1.28-.12-1.83-.36-.32-.14-.59-.34-.81-.59l-.16.74h-2.98L55.77.37h3.18l-.78,3.58c.15-.1.3-.18.45-.25.44-.2.98-.31,1.62-.31s1.16.11,1.61.32c.45.22.82.52,1.12.89.29.37.5.8.63,1.28.13.47.19.97.19,1.5,0,.69-.1,1.39-.31,2.06-.21.68-.52,1.3-.93,1.84-.42.54-.94.98-1.55,1.31-.62.34-1.35.51-2.16.51ZM59.27,5.89c-.4,0-.73.1-1,.29-.29.21-.53.48-.71.8-.19.33-.33.7-.42,1.08-.09.4-.14.78-.14,1.12,0,.44.12.78.37,1.05.24.26.57.38,1.03.38.39,0,.71-.09.98-.28.28-.2.52-.46.7-.77.19-.32.33-.68.42-1.06.09-.39.14-.76.14-1.09,0-.46-.11-.84-.32-1.14-.19-.26-.53-.39-1.04-.39Z"/>
      <path class="cls-1" d="M58.5.74l-.91,4.16h.03c.38-.4.76-.69,1.16-.87.39-.18.88-.27,1.46-.27s1.05.1,1.45.29c.4.19.73.45.98.78.26.33.44.72.56,1.16.12.44.18.91.18,1.4,0,.66-.1,1.31-.29,1.96-.19.64-.48,1.22-.87,1.72-.39.5-.87.91-1.44,1.21-.57.31-1.23.46-1.99.46-.62,0-1.18-.11-1.69-.33-.51-.22-.87-.63-1.09-1.22h-.03l-.29,1.34h-2.22l2.55-11.79h2.43M58.4,10.99c.47,0,.86-.12,1.19-.35.33-.23.59-.53.8-.88.21-.36.36-.75.46-1.16.1-.42.15-.81.15-1.17,0-.54-.13-.99-.39-1.35-.26-.36-.71-.54-1.33-.54-.48,0-.88.12-1.22.36-.33.24-.6.54-.81.91-.21.36-.37.76-.46,1.19-.1.43-.15.83-.15,1.2,0,.53.15.96.46,1.3.31.34.74.5,1.3.5M59.42,0h-3.94l-.13.58-2.55,11.79-.19.89h3.73l.09-.41c.13.09.28.17.43.24.6.26,1.26.39,1.98.39.87,0,1.66-.19,2.34-.55.66-.36,1.22-.83,1.67-1.41.44-.57.78-1.23,1-1.96.21-.71.32-1.44.32-2.17,0-.56-.07-1.1-.21-1.6-.15-.53-.38-1.01-.69-1.41-.33-.42-.74-.75-1.24-1-.5-.24-1.1-.36-1.78-.36-.58,0-1.1.08-1.54.25l.52-2.37.19-.89h0ZM58.4,10.25c-.46,0-.65-.15-.76-.26-.18-.2-.27-.46-.27-.8,0-.32.04-.67.13-1.04.08-.35.21-.68.38-.98.16-.28.36-.5.61-.68.2-.15.46-.22.78-.22.37,0,.62.08.74.24.17.24.25.54.25.92,0,.3-.04.64-.13,1.01-.08.34-.21.66-.38.96-.16.27-.35.48-.6.66-.2.14-.45.21-.76.21h0Z"/>
    </g>
    <g>
      <path class="cls-2" d="M68.27,13.1c-.63,0-1.21-.08-1.73-.25-.53-.17-1-.43-1.38-.78-.38-.35-.68-.79-.89-1.3-.21-.51-.31-1.1-.31-1.76,0-.72.12-1.43.36-2.1.24-.67.59-1.27,1.03-1.8.45-.53,1-.95,1.65-1.27.65-.31,1.39-.47,2.2-.47.65,0,1.25.08,1.79.25.56.17,1.04.43,1.44.78.4.35.72.79.94,1.31.22.51.33,1.11.33,1.77,0,.44-.05.91-.14,1.41l-.06.3h-6.47v.13c0,.4.12.7.37.94.25.24.66.36,1.22.36.19,0,.37-.03.51-.08.15-.06.29-.13.4-.22.12-.09.22-.19.31-.31.1-.14.2-.27.29-.4l.11-.16h3.17l-.2.51c-.2.51-.45.96-.73,1.35-.29.4-.64.74-1.03,1.01-.4.27-.87.48-1.39.61-.51.13-1.11.19-1.77.19ZM70.6,6.97c0-.07-.02-.15-.03-.22-.03-.17-.09-.32-.18-.45-.08-.12-.19-.21-.35-.29-.16-.08-.4-.12-.69-.12s-.56.04-.78.12c-.22.08-.42.19-.58.33-.16.14-.3.3-.41.49-.03.05-.05.09-.08.14h3.09Z"/>
      <path class="cls-1" d="M69.21,3.76c.62,0,1.18.08,1.69.23.51.15.94.39,1.3.7.36.31.64.7.84,1.17.2.47.3,1.01.3,1.63,0,.42-.05.86-.14,1.34h-6.52c-.01.06-.02.1-.02.15v.35c0,.5.16.9.48,1.2.32.31.81.46,1.47.46.24,0,.45-.04.64-.11.19-.07.35-.16.5-.27.14-.11.27-.24.38-.38.11-.14.21-.28.3-.41h2.43c-.19.48-.42.91-.68,1.27-.26.36-.58.67-.94.92-.37.25-.79.43-1.27.55-.49.12-1.05.18-1.69.18-.59,0-1.13-.08-1.62-.23-.49-.15-.9-.39-1.24-.7-.34-.31-.61-.7-.8-1.16-.19-.46-.28-1-.28-1.62,0-.68.11-1.34.34-1.97.23-.63.55-1.19.97-1.68.42-.49.93-.88,1.53-1.17.61-.29,1.28-.44,2.04-.44M66.94,7.34h4.06c0-.22-.02-.44-.06-.65-.04-.21-.12-.41-.23-.59-.11-.18-.28-.32-.5-.42-.22-.1-.5-.16-.86-.16s-.64.05-.91.15c-.26.1-.49.23-.68.4-.19.17-.36.36-.49.58-.13.22-.24.45-.33.69M69.21,3.02c-.86,0-1.65.17-2.36.51-.7.34-1.29.79-1.77,1.36-.47.56-.84,1.2-1.1,1.91-.26.71-.39,1.46-.39,2.22,0,.71.11,1.35.34,1.89.23.56.56,1.04.98,1.43.42.39.93.68,1.52.86.55.18,1.17.27,1.84.27s1.32-.07,1.86-.2c.57-.14,1.07-.36,1.51-.66.44-.3.81-.66,1.13-1.09.3-.41.56-.89.77-1.43l.21-.53h.05l.05-.26.09-.22h-.05l.02-.11c.1-.52.15-1.01.15-1.48,0-.71-.12-1.36-.36-1.91-.24-.57-.59-1.05-1.03-1.44-.44-.38-.96-.67-1.57-.85-.58-.17-1.22-.26-1.9-.26h0ZM68.27,6.6c.12-.1.27-.18.43-.24.18-.07.4-.1.65-.1.31,0,.47.05.54.08.09.04.16.1.2.16.02.03.04.07.06.1h-1.87ZM67.42,9.56h2.28c-.05.07-.11.15-.16.22-.07.09-.15.17-.24.24-.09.07-.19.12-.31.17-.1.04-.23.06-.38.06-.32,0-.74-.04-.96-.26-.08-.08-.19-.21-.23-.43h0Z"/>
    </g>
  </g>
  <g>
    <g>
      <path class="cls-2" d="M77.44,17.67l2.8-13.42h5.62c.66,0,1.26.04,1.78.13.55.09,1.03.26,1.42.5.41.25.73.61.94,1.05.21.43.32.99.32,1.64,0,.39-.06.78-.18,1.15-.12.37-.3.72-.53,1.01-.23.3-.51.55-.84.75-.08.05-.17.1-.26.14.3.19.55.43.75.72.36.52.55,1.14.55,1.82,0,.74-.15,1.41-.44,1.97-.29.56-.68,1.04-1.17,1.42-.48.37-1.04.65-1.66.84-.61.19-1.26.28-1.93.28h-7.19ZM84.5,14.83c.57,0,1.01-.14,1.37-.44.33-.28.5-.7.5-1.29,0-.26-.05-.46-.14-.59-.1-.15-.24-.25-.4-.33-.18-.08-.38-.14-.6-.16-.25-.02-.5-.03-.74-.03h-2.48l-.61,2.84h3.11ZM85.31,9.42c.44,0,.81-.12,1.13-.35.29-.22.43-.54.43-1,0-.38-.09-.64-.26-.76-.21-.15-.51-.22-.89-.22h-2.69l-.49,2.33h2.77Z"/>
      <path class="cls-1" d="M85.86,4.58c.64,0,1.22.04,1.73.13.51.08.95.23,1.3.46.36.22.63.53.82.91.19.39.29.88.29,1.49,0,.36-.05.71-.16,1.05-.11.34-.26.64-.47.91-.21.27-.46.49-.75.67-.29.18-.63.29-1.01.34v.04c.61.17,1.07.49,1.4.96.33.47.49,1.02.49,1.64,0,.69-.13,1.3-.4,1.82-.27.52-.63.96-1.08,1.31-.45.35-.97.61-1.55.79-.58.18-1.19.27-1.84.27h-6.78l2.66-12.76h5.35M82.13,9.75h3.18c.51,0,.95-.14,1.33-.42.37-.28.56-.7.56-1.26,0-.5-.13-.84-.4-1.03-.27-.18-.63-.28-1.08-.28h-2.96l-.62,2.99M80.99,15.16h3.51c.64,0,1.17-.17,1.58-.52.41-.35.62-.86.62-1.54,0-.33-.07-.6-.21-.79-.14-.19-.31-.34-.53-.44-.21-.1-.45-.16-.71-.19-.26-.02-.52-.04-.77-.04h-2.75l-.75,3.5M85.86,3.92h-5.89l-.11.52-2.66,12.76-.17.79h7.59c.71,0,1.39-.1,2.03-.3.65-.2,1.25-.5,1.76-.89.53-.41.96-.92,1.27-1.53.31-.61.47-1.33.47-2.12s-.2-1.43-.61-2.01c-.13-.18-.27-.35-.43-.5.29-.2.55-.45.77-.73.26-.33.45-.71.58-1.12.13-.4.19-.82.19-1.24,0-.71-.12-1.31-.35-1.78-.24-.5-.6-.9-1.06-1.18-.43-.26-.95-.45-1.54-.55-.54-.09-1.16-.13-1.84-.13h0ZM83.29,7.42h2.43c.31,0,.55.05.71.16.05.04.12.19.12.49,0,.46-.17.64-.3.73-.26.19-.57.29-.93.29h-2.36l.35-1.67h0ZM82.27,12.32h2.21c.23,0,.47.01.71.03.19.02.35.06.49.13.11.05.2.13.27.23.03.04.08.14.08.4,0,.48-.12.82-.38,1.03-.29.24-.67.36-1.15.36h-2.7l.47-2.19h0Z"/>
    </g>
    <g>
      <path class="cls-2" d="M90.18,17.67l2.04-9.9h3.09l-.15.66c.16-.14.34-.26.53-.37.62-.35,1.31-.53,2.05-.53.28,0,.55.02.83.06l.35.05-.66,3.13-.86-.17c-.16-.03-.31-.05-.47-.05-.43,0-.8.07-1.09.22-.3.15-.54.34-.75.59-.21.26-.38.56-.5.88-.13.35-.24.71-.32,1.09l-.91,4.36h-3.19Z"/>
      <path class="cls-1" d="M97.74,7.85c.26,0,.52.02.78.05l-.52,2.47c-.18-.04-.36-.07-.54-.11-.18-.04-.36-.05-.54-.05-.49,0-.9.08-1.24.25-.34.17-.62.39-.86.68-.23.29-.42.61-.55.97-.14.36-.25.74-.33,1.13l-.86,4.09h-2.52l1.91-9.24h2.41l-.37,1.66.04.04c.29-.64.72-1.13,1.29-1.46.58-.33,1.2-.49,1.88-.49M97.74,7.19c-.74,0-1.43.17-2.07.5l.06-.25h-3.77l-.11.53-1.91,9.24-.16.79h3.86l.11-.52.86-4.09c.07-.36.18-.7.3-1.04.11-.29.26-.56.45-.79.17-.21.38-.38.64-.5.25-.12.57-.18.95-.18.13,0,.27.01.41.04l.53.11.64.13.13-.64.52-2.47.15-.69-.7-.1c-.29-.04-.59-.06-.87-.06h0Z"/>
    </g>
    <g>
      <path class="cls-2" d="M99.74,20.91c-.22,0-.46-.01-.69-.04-.22-.02-.44-.04-.66-.05l-.38-.02.56-2.75h.27c.19,0,.38.02.58.06.15.03.3.05.44.05.24,0,.43-.03.57-.1.14-.07.25-.15.34-.25.1-.11.18-.22.24-.34.06-.11.12-.21.18-.3l-1.69-9.4h3.29l.71,5.85,2.82-5.85h3.44l-6.14,11.02c-.22.41-.46.76-.7,1.03-.25.29-.54.51-.84.67-.3.16-.65.27-1.04.33-.37.06-.8.08-1.29.08Z"/>
      <path class="cls-1" d="M109.2,8.1l-5.87,10.53c-.21.39-.43.72-.66.97-.23.26-.48.46-.75.6-.27.14-.59.24-.94.3-.35.05-.76.08-1.24.08-.21,0-.43-.01-.66-.04-.23-.02-.45-.04-.68-.05l.43-2.11c.17,0,.34.02.51.05.17.04.34.05.51.05.3,0,.54-.05.71-.13.18-.09.32-.2.44-.32.11-.13.21-.26.29-.4.08-.14.16-.27.24-.38l-1.64-9.15h2.6l.8,6.61h.04l3.19-6.61h2.68M110.32,7.44h-4.21l-.18.37-2.25,4.65-.54-4.44-.07-.58h-3.98l.14.78,1.59,8.89c-.04.07-.08.14-.12.21-.05.1-.12.19-.2.28-.06.06-.14.12-.24.18-.04.02-.16.06-.42.06-.12,0-.25-.01-.37-.04-.22-.04-.43-.07-.64-.07h-.54l-.11.53-.43,2.11-.15.75.76.04c.22.01.43.03.64.05.25.03.49.04.73.04.5,0,.96-.03,1.34-.09.42-.06.81-.19,1.14-.36.34-.18.66-.43.94-.75.26-.29.51-.66.74-1.1l5.87-10.52.55-.98h0Z"/>
    </g>
    <g>
      <path class="cls-2" d="M111.64,17.91c-.54,0-1.01-.07-1.42-.22-.41-.15-.77-.34-1.05-.59-.29-.25-.5-.55-.64-.89-.13-.33-.2-.68-.2-1.04,0-.99.35-1.79,1.03-2.39.66-.58,1.59-.94,2.77-1.08.6-.07,1.12-.13,1.57-.16.42-.03.77-.09,1.04-.16.23-.06.4-.15.5-.25.08-.08.12-.23.12-.44,0-.17-.03-.29-.09-.37-.08-.1-.17-.18-.29-.25-.13-.07-.27-.11-.42-.14-.17-.03-.32-.04-.47-.04-.39,0-.73.09-1.04.28-.28.17-.44.43-.51.81l-.05.27h-3.03l.05-.38c.09-.63.29-1.17.59-1.6.3-.42.67-.77,1.1-1.03.42-.26.9-.44,1.42-.55.51-.1,1.04-.16,1.58-.16.43,0,.88.03,1.35.09.48.06.93.19,1.34.37.43.2.79.48,1.06.83.29.37.43.87.42,1.47,0,.45-.07,1-.21,1.62l-.82,3.72c-.05.16-.07.35-.09.57-.02.24-.03.44-.03.61,0,.12.03.27.08.44l.13.42h-3.31v-.5c-.25.18-.53.32-.82.44-.54.2-1.1.3-1.67.3ZM114.69,13.49c-.16.05-.33.08-.5.1-.37.04-.75.08-1.12.1-.21.02-.43.06-.64.11-.19.04-.36.11-.5.2-.13.08-.23.19-.31.32-.08.13-.12.32-.12.54s.08.39.26.5c.23.14.49.21.8.21.34,0,.63-.05.85-.16.23-.11.42-.24.58-.41.16-.17.28-.36.37-.57.1-.24.19-.47.25-.71l.06-.23Z"/>
      <path class="cls-1" d="M114.21,7.85c.42,0,.85.03,1.3.09.45.06.87.18,1.25.35.38.17.69.42.94.73.24.32.36.74.35,1.26,0,.44-.07.96-.2,1.56l-.82,3.72c-.05.17-.08.37-.1.62-.02.24-.03.46-.03.64,0,.15.03.33.09.54h-2.53v-.91c-.35.39-.77.68-1.27.87-.5.18-1.02.28-1.55.28-.5,0-.94-.07-1.31-.2-.37-.13-.69-.31-.94-.53-.25-.22-.43-.48-.55-.77-.12-.29-.18-.6-.18-.92,0-.89.31-1.61.92-2.15.61-.54,1.48-.87,2.6-1,.59-.07,1.11-.13,1.55-.16.44-.04.81-.09,1.1-.17.29-.08.51-.19.65-.34.14-.15.21-.37.21-.67,0-.24-.05-.43-.16-.57-.11-.14-.24-.26-.4-.34-.16-.08-.33-.14-.52-.17-.19-.03-.36-.04-.53-.04-.45,0-.86.11-1.21.33-.36.22-.58.56-.66,1.03h-2.37c.08-.58.26-1.07.54-1.46.27-.39.61-.7,1-.94.39-.24.83-.41,1.32-.51.49-.1.99-.15,1.52-.15M112.57,15.9c.39,0,.72-.06.99-.19.27-.13.49-.29.68-.48.18-.2.33-.42.44-.67.11-.25.2-.5.27-.75l.25-.89c-.32.19-.67.31-1.03.35-.37.04-.74.07-1.11.1-.24.02-.47.06-.7.12-.23.05-.43.13-.6.24-.17.11-.31.25-.42.44-.11.18-.16.42-.16.71,0,.35.14.61.42.78.28.17.6.26.97.26M114.21,7.19c-.57,0-1.12.06-1.65.17-.56.12-1.07.31-1.53.59-.47.28-.87.66-1.2,1.12-.33.47-.55,1.06-.65,1.74l-.11.75h1.94c-.75.2-1.38.52-1.87.96-.76.66-1.14,1.55-1.14,2.64,0,.4.08.8.23,1.17.16.39.4.73.73,1.02.31.28.7.5,1.16.66.44.15.96.23,1.53.23.61,0,1.21-.11,1.78-.32.13-.05.26-.1.38-.16v.25h4.08l-.25-.85c-.05-.17-.06-.28-.06-.35,0-.17,0-.36.03-.59.01-.2.04-.36.07-.48l.83-3.76c.14-.65.21-1.21.21-1.7.01-.66-.15-1.23-.49-1.66-.31-.4-.71-.71-1.18-.93-.44-.2-.92-.33-1.44-.4-.48-.06-.95-.1-1.39-.1h0ZM112.82,11.28l.05-.26c.07-.37.24-.51.36-.58.25-.16.54-.23.87-.23.13,0,.27.01.42.04.11.02.22.05.31.1.07.04.13.09.18.15,0,.01.03.07.03.18,0,.16-.03.22-.03.22-.02.02-.11.09-.34.16-.25.07-.58.12-.98.15-.26.02-.55.05-.86.08h0ZM112.57,15.24c-.25,0-.45-.05-.63-.16-.07-.04-.11-.08-.11-.22,0-.21.04-.32.07-.38.05-.09.12-.16.2-.21.11-.07.25-.12.4-.16.2-.05.4-.08.61-.1.35-.02.73-.06,1.1-.1-.04.13-.09.25-.15.38-.08.18-.18.34-.31.48-.13.13-.28.24-.48.33-.18.08-.42.13-.71.13h0Z"/>
    </g>
    <g>
      <path class="cls-2" d="M124.48,17.67l1.21-5.81.1-.56c.04-.21.06-.38.06-.5,0-.11-.03-.26-.24-.41-.2-.14-.41-.21-.64-.21-.33,0-.61.06-.86.19-.25.13-.47.3-.65.5-.18.21-.34.46-.46.74-.13.29-.22.58-.29.89l-1.09,5.17h-3.19l2.04-9.9h3.11l-.14.64c.76-.59,1.67-.89,2.71-.89,1.98,0,3.02.97,3.02,2.81,0,.11-.01.25-.04.42-.03.16-.05.31-.08.47-.03.16-.06.3-.09.44-.03.13-.05.23-.06.31l-1.2,5.7h-3.2Z"/>
      <path class="cls-1" d="M126.13,7.85c1.8,0,2.69.83,2.69,2.48,0,.1-.01.22-.04.37-.02.15-.05.3-.08.46-.03.15-.06.3-.09.44-.03.14-.05.25-.06.33l-1.14,5.42h-2.53l1.12-5.42c.02-.14.06-.33.1-.57.04-.24.06-.42.06-.55,0-.27-.13-.5-.38-.68-.26-.18-.53-.27-.83-.27-.38,0-.72.07-1.01.22-.29.15-.54.34-.75.58-.21.24-.38.51-.52.82-.14.31-.24.63-.31.95l-1.03,4.92h-2.52l1.91-9.24h2.43l-.29,1.29h.04c.82-1.02,1.9-1.54,3.23-1.54M126.13,7.19c-.82,0-1.56.17-2.22.51l.06-.26h-3.78l-.11.53-1.91,9.24-.16.79h3.86l.11-.52,1.03-4.92c.06-.27.15-.55.27-.82.11-.25.25-.46.41-.65.15-.18.33-.32.55-.43.2-.1.43-.15.71-.15.16,0,.31.05.45.15.1.07.1.11.1.14,0,.05,0,.18-.05.44-.04.24-.08.43-.1.58l-1.12,5.39-.16.79h3.88l.11-.52,1.14-5.42c.02-.12.04-.21.06-.33.03-.14.06-.29.09-.45.03-.16.06-.32.08-.48.03-.19.04-.34.04-.47,0-2.03-1.19-3.14-3.35-3.14h0Z"/>
    </g>
    <g>
      <path class="cls-2" d="M133.23,17.82c-.32,0-.63-.03-.94-.09-.33-.06-.63-.17-.89-.33-.28-.17-.51-.4-.67-.68-.17-.29-.24-.66-.23-1.1,0-.12.01-.28.04-.45.02-.15.05-.32.09-.49l.95-4.55h-1.67l.55-2.36h1.62l.57-2.81h3.21l-.57,2.81h1.83l-.54,2.36h-1.79l-.89,4.33c-.03.1-.04.18-.05.24,0,.06-.02.1-.02.12,0,.15.03.21.03.21.03.04.05.07.08.09.04.02.08.03.13.04.1,0,.19,0,.28,0,.3,0,.59-.02.87-.05l.46-.06-.58,2.64s-.77.07-1.03.08c-.27.02-.54.03-.83.03Z"/>
      <path class="cls-1" d="M135.44,5.3l-.57,2.81h1.82l-.39,1.7h-1.8l-.95,4.59c-.02.1-.04.18-.05.26-.01.08-.02.13-.02.17,0,.17.03.29.08.38.05.09.12.16.2.21.08.05.18.07.28.08.1,0,.2,0,.29,0,.31,0,.61-.02.91-.05l-.43,1.95c-.26.02-.52.04-.78.06-.26.02-.53.03-.8.03-.3,0-.59-.03-.88-.08-.29-.05-.55-.15-.79-.29-.23-.14-.42-.32-.55-.56-.14-.24-.2-.55-.19-.93,0-.12.01-.25.04-.4.02-.15.05-.31.09-.47l1.04-4.95h-1.66l.39-1.7h1.62l.57-2.81h2.53M136.25,4.64h-3.88l-.11.53-.46,2.28h-1.61l-.12.51-.39,1.7-.19.81h1.68l-.87,4.16c-.04.18-.07.35-.09.51-.03.18-.04.35-.04.5-.02.48.08.91.27,1.26.19.34.46.61.79.8.3.18.64.3,1,.37.33.06.67.09,1,.09.29,0,.57,0,.85-.03.27-.02.53-.04.8-.06l.48-.04.1-.47.43-1.95.2-.91-.92.11c-.27.03-.55.05-.83.05-.06,0-.13,0-.2,0,0,0,0-.01,0-.02,0,0,0-.03.01-.07,0-.06.02-.13.04-.2l.84-4.1h1.79l.12-.51.39-1.7.19-.81h-1.84l.41-2.02.16-.79h0Z"/>
    </g>
    <g>
      <path class="cls-2" d="M137.84,8.78l.22-.04c.44-.08.75-.23.92-.44.13-.16.23-.38.31-.64h-1.22l.71-3.41h3.49l-.65,3.15c-.09.43-.21.83-.38,1.2-.17.39-.4.73-.69,1.03-.29.3-.67.54-1.1.72-.43.17-.96.28-1.58.3l-.42.02.4-1.88Z"/>
      <path class="cls-1" d="M141.87,4.58l-.57,2.75c-.08.41-.2.78-.36,1.14-.15.35-.36.66-.62.93-.26.27-.59.48-.99.64-.4.16-.89.25-1.47.28l.27-1.25c.52-.1.89-.28,1.12-.55.22-.27.38-.67.47-1.18h-1.23l.57-2.75h2.82M142.68,3.92h-4.16l-.11.52-.57,2.75-.16.79h1.13s-.05.08-.08.11c-.12.14-.36.25-.72.32l-.43.08-.09.43-.27,1.25-.18.83.85-.03c.66-.03,1.22-.14,1.69-.32.48-.19.89-.46,1.22-.79.32-.32.57-.7.76-1.12.17-.39.31-.82.4-1.27l.57-2.75.16-.79h0Z"/>
    </g>
    <g>
      <path class="cls-2" d="M144.96,17.91c-.47,0-.96-.05-1.44-.15-.5-.1-.95-.28-1.36-.51-.42-.24-.76-.57-1.03-.98-.27-.42-.41-.94-.41-1.55v-.71h3v.63c0,.15.03.27.1.37.08.11.18.21.31.29.14.08.31.15.5.2.19.05.39.07.57.07.17,0,.34-.02.51-.05.15-.03.29-.08.41-.15.11-.06.2-.15.27-.24.06-.08.08-.19.08-.34s-.02-.34-.12-.42c-.14-.11-.33-.21-.57-.29l-1.94-.62c-.34-.11-.64-.23-.89-.36-.28-.14-.52-.31-.72-.51-.2-.21-.36-.47-.47-.76-.1-.29-.15-.63-.15-1.04,0-.61.15-1.14.44-1.56.28-.41.65-.74,1.1-1,.43-.25.91-.43,1.43-.54.5-.11.99-.16,1.45-.16.51,0,1.02.04,1.5.13.5.09.96.26,1.34.5.4.25.72.6.95,1.03.23.43.34.98.32,1.63v.32h-3v-.32c-.02-.31-.1-.54-.26-.7s-.44-.23-.85-.23-.73.06-.98.17c-.18.08-.25.2-.25.41,0,.07.02.16.14.26.09.08.31.2.79.35l1.27.41c.36.11.7.24,1,.39.32.16.6.35.85.58.25.24.45.52.59.85.14.33.21.71.21,1.13,0,.63-.15,1.18-.43,1.64-.28.44-.66.8-1.12,1.08-.45.27-.95.46-1.51.58-.54.11-1.1.17-1.65.17Z"/>
      <path class="cls-1" d="M146.05,7.85c.5,0,.98.04,1.44.13.46.08.87.24,1.22.46.35.22.63.52.83.9.2.38.3.87.29,1.47h-2.36c-.01-.39-.13-.7-.35-.92-.22-.22-.58-.33-1.08-.33-.45,0-.82.07-1.12.21-.29.14-.44.37-.44.71,0,.2.09.38.26.52.17.14.47.28.9.41l1.27.41c.34.11.66.23.95.38.29.14.55.32.77.53.22.21.39.46.52.74.12.29.19.62.19,1,0,.57-.13,1.06-.38,1.46-.26.4-.59.72-1.01.97-.42.25-.89.43-1.41.54-.52.11-1.05.16-1.59.16-.45,0-.91-.05-1.37-.14-.46-.1-.88-.25-1.26-.47-.38-.22-.68-.51-.92-.88-.24-.36-.36-.82-.36-1.37v-.38h2.34v.3c0,.21.05.4.16.55.11.15.25.28.42.38.17.1.37.18.59.23.22.05.44.08.65.08.19,0,.38-.02.57-.05.19-.04.36-.1.52-.19.15-.09.28-.2.37-.34.1-.14.14-.31.14-.53,0-.32-.08-.55-.25-.68-.17-.13-.39-.24-.66-.34l-1.94-.63c-.32-.11-.6-.22-.85-.34-.24-.12-.45-.27-.62-.45-.17-.18-.3-.39-.39-.64-.09-.25-.13-.56-.13-.93,0-.55.13-1.01.38-1.38.26-.37.59-.67.99-.9.4-.23.85-.4,1.33-.5.48-.1.94-.15,1.38-.15M146.05,7.19c-.48,0-.99.06-1.52.17-.55.11-1.06.31-1.52.57-.49.28-.89.65-1.2,1.1-.33.48-.5,1.07-.5,1.75,0,.45.06.83.17,1.15.12.34.3.64.54.88.22.23.5.43.81.58.2.1.43.19.68.29h-3.11v1.03c0,.68.16,1.26.47,1.73.29.45.67.81,1.14,1.08.44.26.93.44,1.46.55.5.1,1.01.16,1.51.16.58,0,1.16-.06,1.72-.17.59-.12,1.14-.33,1.62-.62.5-.3.91-.7,1.22-1.18.32-.51.49-1.12.49-1.81,0-.47-.08-.9-.24-1.26-.16-.37-.39-.69-.67-.96-.27-.25-.58-.47-.93-.64-.09-.04-.18-.09-.27-.13h2.58v-.65c.03-.71-.1-1.31-.35-1.79-.26-.48-.61-.87-1.06-1.15-.42-.26-.91-.45-1.46-.55-.5-.09-1.03-.14-1.56-.14h0ZM145.17,10.38s.01-.01.05-.03c.2-.09.48-.14.83-.14.44,0,.58.11.61.14.03.03.14.15.15.47v.26s-.96-.31-.96-.31c-.49-.15-.65-.26-.68-.29-.02-.06-.01-.09-.01-.09h0ZM145.21,15.24c-.16,0-.33-.02-.5-.06-.16-.04-.29-.09-.41-.16-.09-.05-.16-.12-.21-.19-.02-.03-.04-.08-.04-.18v-.78l1.65.53c.18.06.34.14.44.22,0,0,0,.06,0,.17,0,.09-.02.14-.03.15-.04.06-.09.1-.16.14-.09.05-.19.09-.31.11-.15.03-.3.04-.45.04h0Z"/>
    </g>
  </g>
  <g>
    <path class="cls-1" d="M2.59,68.19c-.96,0-1.83-.52-2.28-1.37-.45-.84-.4-1.86.13-2.66l2.52-3.76c.48-.72,1.28-1.14,2.15-1.14h5c.4-.05,1.48-1.11,2.03-2.13.02-.04.04-.07.06-.11l4.21-6.91c-1.75-3.77-1.82-7.82-.21-12.07,1.64-4.3,4.26-7.65,7.81-9.93,1.34-.86,2.7-1.49,3.97-1.96-.75-.13-1.41-.59-1.8-1.26-.46-.8-.46-1.79.01-2.59l1.68-2.87c.46-.79,1.32-1.28,2.23-1.28h24.53c.93,0,1.79.5,2.25,1.31.46.81.44,1.81-.04,2.61l-1.74,2.89c-.46.77-1.31,1.25-2.21,1.25h-4.92c-.73,0-1.69,1.11-2.12,1.87-.02.03-.04.07-.06.11l-.46.76c4.05,3.03,6.08,7.44,5.88,12.82-.08,2.27-.57,4.49-1.42,6.58.92-1.06,1.49-1.81,1.51-1.83.46-.6,1.16-.96,1.92-1l4.22-.22s.09,0,.13,0c.92,0,1.77.49,2.23,1.28.49.84.47,1.87-.05,2.69l-11.23,17.73c-.48.75-1.29,1.2-2.18,1.2H2.59Z"/>
    <path class="cls-2" d="M48.42,39.11c.53-.17.89-.42,1.12-.66-.4-2.4-1.43-4.89-3.6-7.04.33.61.69,1.36,1.04,2.23.56,1.4,1.16,3.28,1.43,5.47Z"/>
    <path class="cls-2" d="M48.52,43.17h1.11c.06-.49.1-.97.12-1.47.03-.7.01-1.44-.06-2.18-.31.2-.69.39-1.17.52.08.99.09,2.04,0,3.13Z"/>
    <g>
      <path class="cls-2" d="M48.65,47.23c.38-1.04.67-2.12.86-3.22h-1.08c-.12.88-.32,1.73-.58,2.55.29.16.56.38.8.67Z"/>
      <path class="cls-2" d="M47.54,47.46c-.99,2.63-2.52,4.89-3.84,6.52-.64.79-1.27,1.49-1.84,2.08.87-.6,1.72-1.31,2.55-2.16,1.62-1.65,2.91-3.57,3.82-5.65-.2-.34-.44-.61-.7-.79Z"/>
    </g>
    <path class="cls-2" d="M58.53,47.32c-.2-.34-.56-.55-.96-.55-.02,0-.04,0-.06,0l-4.22.22c-.32.02-.62.17-.82.43-.04.05-3.58,4.62-7.21,7.51-4.04,3.21-9.11,5.83-11.32,5.83-1.91,0-6.76.02-9.48.03-.02,0-.05,0-.08-.05-.03-.05,0-.08,0-.1l1.65-2.72c.24.13.38.2.38.2,0,0,5.84,2.17,12.08-.27.24-.19.55-.43.57-.44.5-.41,5.45-4.57,7.58-10.21-1.26,0-2.6,1.27-2.62,1.28l-.03.03-3.74,2.97c-.12.09-2.92,2.27-5.3,3.67-.95.56-2.05.96-3.03,1.25-1.43.42-2.91.62-4.4.62h-.93l.11-.17.45-.75h.82c.88,0,1.76-.1,2.62-.3,1.12-.26,2.65-.72,3.9-1.45,2.33-1.37,5.17-3.58,5.2-3.6l3.72-2.95c.2-.18,1.87-1.69,3.55-1.5.23-.74.41-1.5.53-2.28h-13.01l.51-.84h12.6c.09-1.02.09-2.01.02-2.96-.21.02-.44.04-.68.04,0,0-.02,0-.03,0-3.09,0-7.5-3.88-7.69-4.05l.4-.67.08-.14s4.47,3.93,7.2,3.93c0,0,.01,0,.02,0,.21,0,.41-.01.59-.03-.61-5-3.03-8.59-3.37-9.08,0,0-.02-.02-.03-.05-.23-.29-.49-.55-.78-.78l1.2-1.98s.02-.03.03-.05c.01-.03,1.47-2.63,3.41-2.63h4.92c.39,0,.75-.2.95-.54l1.74-2.89c.21-.34.21-.77.02-1.12-.2-.35-.57-.56-.96-.56h-24.53c-.39,0-.76.21-.96.55l-1.68,2.87c-.2.34-.2.77,0,1.11.2.34.56.56.96.56h4.97s.06,0,.1.06c.03.06,0,.09,0,.11l-1.01,1.67c-2.45.35-6.11,1.34-9.4,4.08h18.21l-1.86,3.07h-10.01l1.36-2.24h-8.63c-.92.89-1.8,1.94-2.59,3.16h19.31l-1.09,1.8-.77,1.27h-10.02l1.36-2.24h-9.3c-.55.95-1.05,2-1.49,3.16,0,0,0,0,0,0h18.89l-2.1,3.46h-10.03l1.6-2.62h-8.65c-.4,1.24-.62,2.43-.71,3.55h17.22s-.23.38-.23.38l-10.1,16.67c-.49.8.09,1.83,1.03,1.83,2.8-.01,7.58-.03,9.47-.03,2.75,0,8.22-3.06,12-6.07,3.79-3.01,7.4-7.7,7.4-7.7l4.22-.22-11.23,17.73H2.59l2.52-3.76h4.99c2.4.02,4.31-3.48,4.31-3.48l4.32-7.1h0s4.51-7.41,4.51-7.41h-6.72c-.03,2.41.61,4.52,1.57,6.33l-4.63,7.61s-.02.03-.03.04c-.52.95-2.01,2.9-3.32,2.9h-.02s-4.99,0-4.99,0c-.37,0-.71.18-.92.49l-2.52,3.76c-.23.34-.25.78-.06,1.14.19.36.57.59.98.59h43.76c.38,0,.73-.19.94-.52l11.23-17.73c.22-.35.23-.79.02-1.15ZM31.86,29.69l2.01-3.29h0l.57-.94c.49-.81-.09-1.85-1.04-1.85h-4.97l1.68-2.87h24.53l-1.74,2.89h-4.92c-2.66,0-4.39,3.22-4.39,3.22l-1.73,2.85h-10Z"/>
  </g>
  <g>
    <path class="cls-1" d="M66.23,42.24c-1.11,0-2.08-.16-2.9-.48-.82-.32-1.51-.76-2.05-1.31-.54-.55-.95-1.21-1.22-1.95-.26-.73-.4-1.54-.4-2.39,0-.78.15-1.54.43-2.25.29-.71.7-1.36,1.23-1.92.52-.55,1.19-1,1.98-1.33.79-.34,1.68-.51,2.65-.51,1.05,0,1.93.13,2.62.39.7.26,1.28.64,1.75,1.1.45.45.78.99.98,1.6.2.59.3,1.23.3,1.88v1.08h-7.3c.04,1.21.3,2.14.77,2.78.5.68,1.29,1,2.41,1,.61,0,1.13-.16,1.61-.49.5-.34.93-.78,1.28-1.31l.22-.32,1.42,1.03-.18.3c-.27.43-.59.85-.96,1.23-.38.39-.82.72-1.3,1-.51.29-1.03.51-1.55.66-.52.15-1.13.23-1.81.23ZM65.79,31.73c-.42,0-.74.21-1.01.66-.26.45-.42,1.15-.47,2.1l2.7-.03c0-.3-.03-.61-.06-.92-.04-.42-.11-.76-.21-1.02-.1-.28-.23-.48-.39-.61-.14-.12-.33-.17-.57-.17Z"/>
    <path class="cls-2" d="M65.96,30.48c1.01,0,1.84.12,2.49.37.65.25,1.19.58,1.61,1.02.41.41.71.9.9,1.45.19.56.28,1.14.28,1.76v.7h-7.31c0,1.48.28,2.6.85,3.37.57.77,1.47,1.16,2.71,1.16.68,0,1.29-.19,1.83-.56.54-.37,1-.84,1.38-1.41l.82.59c-.25.41-.56.8-.91,1.16-.36.36-.76.68-1.22.94-.48.27-.97.48-1.46.62-.49.14-1.06.21-1.7.21-1.07,0-1.99-.15-2.76-.45-.77-.3-1.41-.71-1.92-1.22-.5-.51-.88-1.12-1.13-1.81-.25-.7-.37-1.45-.37-2.26,0-.74.14-1.44.41-2.11.27-.67.65-1.27,1.15-1.8.49-.51,1.11-.93,1.85-1.24.75-.32,1.58-.48,2.5-.48M63.92,34.87l3.47-.04c0-.43-.02-.88-.06-1.33-.04-.45-.12-.83-.23-1.11-.12-.34-.29-.59-.5-.77-.21-.17-.48-.26-.81-.26-.55,0-1,.28-1.33.84-.33.56-.51,1.45-.54,2.67M65.96,29.73c-1.02,0-1.96.18-2.8.54-.84.36-1.54.83-2.1,1.41-.56.6-1,1.28-1.31,2.04-.3.76-.46,1.57-.46,2.39,0,.9.14,1.74.42,2.52.28.8.72,1.5,1.3,2.08.58.58,1.31,1.05,2.18,1.39.86.34,1.88.51,3.04.51.71,0,1.35-.08,1.91-.24.55-.16,1.1-.39,1.63-.69.51-.29.98-.65,1.38-1.06.39-.4.74-.84,1.02-1.29l.36-.59-.56-.41-.82-.59-.63-.46-.43.65c-.33.49-.73.89-1.19,1.21-.42.29-.88.43-1.4.43-1,0-1.69-.28-2.11-.85-.37-.51-.6-1.24-.68-2.18h7.28v-1.45c0-.69-.11-1.36-.32-2-.22-.67-.59-1.25-1.08-1.75-.5-.5-1.13-.9-1.88-1.19-.73-.28-1.66-.42-2.75-.42h0ZM64.72,34.11c.08-.84.25-1.29.39-1.53.25-.42.48-.47.68-.47.22,0,.3.07.33.09.1.08.2.24.27.44.09.23.15.54.19.93.02.17.03.35.04.52l-1.9.02h0Z"/>
  </g>
  <g>
    <path class="cls-1" d="M78.04,46.69c-1.97,0-3.44-.24-4.48-.73-1.13-.53-1.7-1.34-1.7-2.42,0-.7.32-1.27.96-1.71.38-.27.89-.45,1.51-.56-.24-.15-.45-.31-.63-.5-.44-.45-.67-.97-.67-1.56,0-.38.1-.71.29-.99.18-.25.4-.46.66-.65.21-.14.47-.27.76-.37-.65-.32-1.15-.68-1.52-1.09-.52-.59-.78-1.31-.78-2.15,0-1.19.55-2.15,1.64-2.86,1.03-.67,2.35-1.01,3.92-1.01.51,0,1.01.04,1.49.13.47.09.83.16,1.07.23h4.47s0,1.91,0,1.91h-2.01c.09.16.17.32.24.49.16.39.24.81.24,1.24,0,.56-.15,1.1-.46,1.6-.29.48-.69.88-1.17,1.19-.47.3-1.02.54-1.65.71-.62.17-1.3.25-2.02.25h-1.62s-.08.09-.13.16c-.05.07-.08.14-.08.18,0,.23.09.29.17.33.12.06.42.15,1.22.17.66.01,1.33.04,2,.08.66.04,1.14.06,1.43.07.46.02.92.12,1.36.28.45.16.84.38,1.17.64.37.28.68.64.92,1.08.25.45.37.96.37,1.54,0,.61-.15,1.19-.44,1.73-.29.54-.74,1-1.33,1.39-.6.39-1.33.69-2.16.9-.82.21-1.85.31-3.05.31ZM76.7,42.1c-.18.17-.33.36-.45.58-.13.24-.2.53-.2.88,0,.12.04.27.12.44.08.17.21.33.38.48.21.18.46.32.73.43.18.07.55.15,1.27.15.84,0,1.48-.16,1.9-.47.39-.29.58-.76.58-1.44,0-.18-.05-.36-.16-.54-.05-.09-.21-.26-.7-.42-.18-.03-.6-.06-1.17-.07-.56-.01-1.33-.02-2.29-.02ZM77.96,31.7c-.21,0-.39.05-.54.14-.15.1-.28.24-.38.43-.1.2-.17.45-.21.74-.04.31-.06.63-.06.96,0,.72.12,1.31.37,1.75.21.38.48.56.84.56.39,0,.67-.16.88-.5.24-.39.36-.97.36-1.73s-.12-1.39-.36-1.82c-.2-.37-.49-.54-.91-.54Z"/>
    <path class="cls-2" d="M78.01,30.48c.49,0,.96.04,1.42.12.46.08.81.16,1.04.22h4.19v1.18h-2.38c.28.32.49.65.63,1,.14.35.21.72.21,1.1,0,.5-.13.96-.4,1.4-.27.44-.62.79-1.05,1.06-.44.28-.95.5-1.55.66-.59.16-1.23.24-1.92.24h-1.76c-.09.06-.18.17-.29.31-.1.14-.16.28-.16.41,0,.32.13.54.38.66.25.12.71.19,1.37.21.66.01,1.32.04,1.99.08.67.04,1.15.06,1.44.07.42.02.83.11,1.24.25.41.15.77.34,1.07.58.33.25.61.57.82.97.22.39.32.85.32,1.36,0,.55-.13,1.06-.39,1.55-.26.48-.66.9-1.21,1.25-.57.37-1.25.65-2.05.85-.8.2-1.78.3-2.96.3-1.9,0-3.34-.23-4.32-.69-.99-.46-1.48-1.15-1.48-2.08,0-.57.27-1.04.8-1.41.53-.37,1.36-.57,2.48-.61v-.13c-.66-.22-1.18-.52-1.55-.89-.37-.37-.56-.8-.56-1.3,0-.3.07-.56.22-.77.15-.21.34-.39.57-.55.2-.14.45-.25.74-.35.29-.1.53-.18.72-.23v-.12c-.97-.36-1.69-.8-2.15-1.32-.46-.52-.69-1.15-.69-1.9,0-1.06.49-1.91,1.46-2.54.98-.63,2.21-.95,3.71-.95M77.98,36.66c.52,0,.92-.23,1.2-.68.28-.45.42-1.1.42-1.92s-.13-1.51-.4-2c-.27-.49-.68-.74-1.24-.74-.28,0-.53.07-.74.2-.21.13-.38.33-.51.58-.12.25-.21.53-.25.86-.04.33-.06.66-.06,1.01,0,.79.14,1.43.41,1.94.27.5.66.76,1.17.76M78.54,45.43c.93,0,1.64-.18,2.13-.54.49-.36.73-.94.73-1.74,0-.25-.07-.49-.21-.73-.14-.24-.44-.44-.92-.59-.26-.04-.68-.07-1.28-.09-.59-.01-1.41-.02-2.44-.02-.25.22-.46.47-.63.77-.17.3-.25.65-.25,1.07,0,.18.05.38.15.59.1.22.26.42.47.61.25.21.53.37.84.49.31.12.78.18,1.4.18M78.01,29.73c-1.64,0-3.03.36-4.12,1.07-1.18.77-1.81,1.86-1.81,3.17,0,.93.29,1.74.87,2.4.26.3.59.57.97.81-.05.03-.1.06-.14.09-.3.21-.56.46-.76.74-.24.34-.36.74-.36,1.2,0,.69.26,1.31.77,1.82.02.02.04.04.06.05-.34.11-.63.25-.88.43-.93.64-1.12,1.45-1.12,2.02,0,.85.33,2.02,1.91,2.76,1.1.51,2.62.76,4.64.76,1.23,0,2.29-.11,3.14-.33.87-.22,1.64-.54,2.27-.95.65-.42,1.14-.93,1.46-1.53.32-.59.49-1.23.49-1.9,0-.64-.14-1.22-.42-1.72-.27-.48-.61-.89-1.02-1.2-.36-.28-.79-.51-1.27-.69-.48-.17-.97-.27-1.46-.3-.3,0-.77-.03-1.43-.07-.68-.04-1.36-.07-2.02-.08-.51-.01-.79-.06-.93-.09h1.37c.75,0,1.47-.09,2.12-.26.66-.18,1.25-.43,1.76-.75.53-.33.96-.77,1.28-1.31.34-.55.51-1.16.51-1.79,0-.46-.09-.92-.25-1.35h1.79v-2.68h-4.85c-.25-.06-.58-.13-1.01-.21-.5-.09-1.02-.14-1.56-.14h0ZM77.98,35.91c-.15,0-.33-.03-.51-.36-.21-.39-.32-.92-.32-1.58,0-.31.02-.62.06-.91.03-.24.09-.45.18-.62.06-.12.15-.22.24-.28.09-.06.2-.08.34-.08.28,0,.44.1.58.34.21.38.31.93.31,1.64,0,.67-.11,1.2-.31,1.53-.14.23-.3.32-.56.32h0ZM78.54,44.68c-.7,0-1.01-.08-1.13-.13-.23-.09-.44-.21-.63-.37-.12-.11-.22-.23-.27-.34-.07-.15-.08-.24-.08-.28,0-.28.05-.52.15-.7.08-.14.18-.27.28-.39.89,0,1.59,0,2.12.02.62.02.95.04,1.12.07.36.12.44.23.44.23.07.13.11.24.11.36,0,.82-.32,1.06-.43,1.14-.36.26-.92.39-1.68.39h0Z"/>
  </g>
  <g>
    <path class="cls-1" d="M91.65,42.24c-1.11,0-2.08-.16-2.9-.48-.82-.32-1.51-.76-2.05-1.31-.54-.55-.95-1.2-1.22-1.95-.26-.73-.39-1.54-.39-2.39,0-.78.15-1.54.43-2.25.29-.71.7-1.36,1.23-1.92.53-.55,1.19-1,1.98-1.33.79-.34,1.68-.51,2.65-.51,1.05,0,1.93.13,2.62.39.7.26,1.29.64,1.75,1.1.45.45.78.99.99,1.6.2.59.3,1.23.3,1.88v1.08h-7.3c.04,1.21.3,2.14.77,2.78.5.68,1.29,1,2.41,1,.61,0,1.13-.16,1.62-.49.5-.34.93-.78,1.28-1.31l.22-.32,1.42,1.03-.18.3c-.27.43-.59.84-.97,1.23-.38.39-.81.72-1.3,1-.51.29-1.03.51-1.55.66-.53.15-1.13.23-1.81.23ZM91.22,31.73c-.42,0-.74.21-1.01.66-.26.44-.42,1.15-.47,2.1l2.7-.03c0-.3-.03-.61-.06-.92-.04-.42-.11-.76-.21-1.02-.1-.28-.23-.48-.39-.61-.15-.12-.33-.18-.57-.18Z"/>
    <path class="cls-2" d="M91.38,30.48c1.01,0,1.84.12,2.49.37.65.25,1.19.58,1.61,1.02.41.41.71.9.9,1.45.19.56.28,1.14.28,1.76v.7h-7.31c0,1.48.28,2.6.85,3.37.57.77,1.47,1.16,2.71,1.16.68,0,1.29-.19,1.83-.56.54-.37,1-.84,1.38-1.41l.82.59c-.25.41-.56.8-.91,1.16-.36.36-.76.68-1.22.94-.48.27-.97.48-1.46.62-.49.14-1.06.21-1.7.21-1.07,0-1.99-.15-2.76-.45-.77-.3-1.41-.71-1.92-1.22-.5-.51-.88-1.12-1.13-1.81-.25-.7-.37-1.45-.37-2.26,0-.74.14-1.44.41-2.11.27-.67.65-1.27,1.15-1.8.49-.51,1.11-.93,1.85-1.24.75-.32,1.58-.48,2.5-.48M89.35,34.87l3.47-.04c0-.43-.02-.88-.06-1.33-.04-.45-.12-.83-.23-1.11-.12-.34-.29-.59-.5-.77-.21-.17-.48-.26-.81-.26-.55,0-1,.28-1.33.84-.33.56-.51,1.45-.54,2.67M91.38,29.73c-1.02,0-1.96.18-2.8.54-.84.36-1.54.83-2.1,1.41-.56.6-1,1.28-1.31,2.04-.3.76-.46,1.57-.46,2.39,0,.9.14,1.74.42,2.52.28.8.72,1.5,1.3,2.08.58.58,1.31,1.05,2.18,1.39.86.34,1.88.51,3.04.51.71,0,1.35-.08,1.91-.24.55-.16,1.1-.39,1.63-.69.51-.29.98-.65,1.38-1.06.39-.4.74-.84,1.02-1.29l.36-.59-.56-.41-.82-.59-.63-.46-.43.65c-.33.49-.73.89-1.19,1.21-.42.29-.88.43-1.4.43-1,0-1.69-.28-2.11-.85-.37-.51-.6-1.24-.68-2.18h7.28v-1.45c0-.69-.11-1.36-.32-2-.22-.67-.59-1.25-1.08-1.75-.5-.5-1.13-.9-1.88-1.19-.73-.28-1.66-.42-2.75-.42h0ZM90.15,34.11c.08-.84.25-1.29.39-1.53.25-.42.48-.47.68-.47.22,0,.3.07.33.09.1.08.2.24.27.44.09.23.15.54.19.93.02.17.03.35.04.52l-1.9.02h0Z"/>
  </g>
  <g>
    <path class="cls-1" d="M105.39,41.89v-1.5l.83-.09c.2-.02.29-.06.32-.07.07-.04.12-.09.15-.16.03-.06.07-.21.07-.52v-5.06c0-.65-.11-1.13-.33-1.44-.2-.27-.49-.4-.89-.4-.25,0-.48.04-.69.11-.21.08-.43.19-.64.33-.18.12-.32.25-.43.38-.09.1-.16.2-.23.29v5.68c0,.2.03.36.08.49.04.09.1.15.19.2.1.05.22.1.36.15.15.04.3.08.45.1l.33.04v1.49h-7.32v-1.51l.34-.03c.17-.01.35-.03.53-.06.16-.02.29-.05.4-.09.2-.07.25-.16.26-.19.06-.11.09-.27.09-.47v-6.29c0-.16-.04-.32-.13-.48-.09-.17-.2-.3-.34-.4-.08-.06-.21-.11-.38-.16-.18-.05-.37-.09-.58-.1l-.34-.03v-1.49l5.68-.31.39.39v.93l.16-.14c.3-.26.58-.48.84-.65.3-.19.68-.36,1.15-.49.46-.13.96-.2,1.49-.2,1.28,0,2.27.38,2.92,1.13.65.73.97,1.71.97,2.9v5.3c0,.26.04.4.08.47.04.08.12.15.26.2.11.05.23.09.39.14.15.04.32.08.51.09l.34.04v1.5h-7.25Z"/>
    <path class="cls-2" d="M107.17,30.5c1.17,0,2.06.33,2.64,1,.59.67.88,1.55.88,2.65v5.3c0,.27.04.48.12.64.08.16.23.28.44.38.12.05.26.1.43.15.17.05.36.09.58.11v.79h-6.5v-.79c.14-.01.3-.03.5-.05.19-.02.34-.06.44-.11.15-.08.26-.19.32-.35s.1-.37.1-.67v-5.06c0-.74-.14-1.29-.41-1.66-.27-.37-.67-.56-1.2-.56-.29,0-.56.04-.81.13-.25.09-.49.21-.73.38-.21.14-.38.29-.5.44-.13.15-.23.28-.32.4v5.81c0,.25.04.46.11.63.07.17.19.3.36.38.12.06.26.12.43.17.17.05.34.09.51.11v.79h-6.57v-.79c.18-.01.36-.03.55-.06.18-.03.34-.06.47-.1.23-.08.39-.2.48-.37.09-.17.13-.38.13-.65v-6.29c0-.22-.06-.44-.17-.66-.12-.22-.27-.39-.45-.53-.13-.09-.29-.16-.49-.22-.2-.06-.42-.1-.65-.12v-.79l5.16-.28.16.16v1.57h.04c.2-.18.45-.4.74-.65.29-.25.55-.46.8-.62.27-.17.62-.32,1.05-.44.43-.12.89-.18,1.38-.18M107.17,29.75c-.56,0-1.09.07-1.59.21-.51.14-.92.32-1.25.54-.13.09-.27.19-.42.3v-.28l-.22-.22-.16-.16-.24-.24-.33.02-5.16.28-.71.04v2.18l.68.06c.19.02.36.05.51.09.15.04.24.09.29.12.07.05.15.14.21.26.06.11.08.21.08.31v6.29c0,.16-.02.25-.04.28,0,0,0,0,0,0,0,0-.03.01-.06.02-.05.02-.16.05-.33.07-.17.02-.34.04-.5.05l-.69.06v2.23h15.77v-2.22l-.68-.07c-.17-.02-.32-.04-.44-.08-.13-.04-.25-.08-.34-.12-.06-.02-.08-.04-.09-.05,0,0-.03-.08-.03-.28v-5.3c0-1.29-.36-2.35-1.07-3.15-.73-.83-1.81-1.25-3.21-1.25h0ZM103.91,33.88c.04-.06.09-.11.14-.18.08-.1.2-.2.35-.31.18-.13.37-.22.55-.29.17-.06.36-.09.56-.09.36,0,.5.13.59.25.12.16.26.51.26,1.22v5.06c0,.2-.02.31-.03.35-.03,0-.08.02-.17.03l-.49.05-.58.06-.45-.06c-.13-.02-.26-.04-.39-.08-.15-.04-.23-.08-.27-.11-.05-.07-.08-.17-.08-.36v-5.55h0Z"/>
  </g>
  <g>
    <path class="cls-1" d="M118.41,42.24c-1.56,0-2.86-.59-3.88-1.75-1-1.15-1.51-2.64-1.51-4.44,0-1.62.57-3.02,1.69-4.17,1.12-1.16,2.5-1.75,4.1-1.75.62,0,1.21.07,1.76.21.29.07.54.16.77.24v-2.94c0-.21-.04-.41-.13-.59-.08-.17-.19-.31-.31-.4-.18-.13-.41-.22-.69-.28-.32-.07-.64-.11-.97-.14l-.34-.03v-1.49l6.38-.31.38.41v14.32c0,.22.03.39.1.53.05.12.14.21.28.28.07.04.23.09.53.13.28.03.51.06.68.06h.36v1.52l-5.84.34-.4-.37v-.41c-.28.21-.61.4-.97.57-.65.31-1.32.46-1.98.46ZM119.75,31.94c-.58,0-1.05.34-1.44,1.03-.43.75-.64,1.85-.64,3.26,0,.56.04,1.07.12,1.51.07.42.21.81.4,1.16.18.33.4.58.68.76.27.18.59.26.97.26s.67-.07.9-.2c.22-.13.42-.29.61-.5v-5.91c-.04-.14-.11-.29-.18-.46-.07-.16-.18-.32-.31-.48-.1-.11-.26-.21-.46-.31-.19-.09-.41-.14-.65-.14Z"/>
    <path class="cls-2" d="M125.12,24.78l.16.17v14.17c0,.27.05.5.13.69.09.19.24.34.44.44.15.08.37.14.66.17.29.04.53.06.72.06v.79l-5.33.31-.16-.15v-.99l-.08-.02c-.35.38-.83.72-1.43,1-.6.28-1.21.43-1.82.43-1.45,0-2.65-.54-3.6-1.62-.94-1.08-1.41-2.48-1.41-4.19,0-1.52.53-2.83,1.58-3.91,1.05-1.09,2.33-1.63,3.83-1.63.59,0,1.15.07,1.66.2.52.13.93.29,1.24.47v-3.54c0-.27-.05-.52-.16-.75-.11-.23-.25-.42-.43-.55-.22-.16-.5-.27-.84-.34-.34-.07-.67-.12-1.01-.15v-.79l5.85-.28M119.83,40.3c.44,0,.8-.08,1.09-.25.29-.17.55-.39.8-.68v-6.11c-.05-.17-.12-.35-.21-.55-.09-.2-.21-.39-.37-.57-.14-.15-.34-.28-.58-.4-.24-.12-.51-.17-.81-.17-.72,0-1.31.41-1.77,1.22-.46.81-.69,1.96-.69,3.45,0,.58.04,1.11.12,1.57.08.46.23.89.44,1.27.21.38.48.68.8.9.33.22.72.32,1.18.32M125.43,24.02l-.35.02-5.85.28-.71.03v2.19l.69.06c.31.03.62.07.92.13.23.05.42.12.55.22.07.05.13.13.19.25.06.14.09.28.09.44v2.42c-.1-.03-.2-.06-.3-.08-.58-.15-1.2-.22-1.85-.22-1.7,0-3.17.63-4.37,1.86-1.19,1.23-1.79,2.72-1.79,4.44,0,1.89.54,3.47,1.6,4.69,1.09,1.25,2.49,1.88,4.16,1.88.72,0,1.44-.17,2.14-.5.18-.08.35-.17.51-.27l.16.15.16.15.23.22.32-.02,5.33-.31.71-.04v-2.22l-.72-.03c-.17,0-.39-.03-.65-.06-.28-.04-.39-.08-.41-.09-.08-.04-.1-.08-.11-.1-.03-.06-.06-.17-.06-.37v-14.47l-.2-.22-.16-.17-.24-.25h0ZM119.83,39.55c-.31,0-.56-.07-.77-.2-.23-.15-.41-.36-.56-.63-.17-.31-.29-.66-.36-1.04-.07-.42-.11-.91-.11-1.44,0-1.35.2-2.38.59-3.08.43-.75.84-.84,1.12-.84.19,0,.35.03.49.1.16.08.28.16.36.24.09.1.17.23.23.36.06.13.11.25.14.36v5.69c-.14.13-.28.24-.43.33-.17.1-.41.15-.71.15h0Z"/>
  </g>
  <g>
    <path class="cls-1" d="M131.2,42.24c-.92,0-1.73-.28-2.38-.83-.68-.56-1.02-1.32-1.02-2.25,0-.52.07-.97.22-1.33.15-.37.36-.71.63-.99.24-.26.53-.48.85-.65.29-.15.62-.3.98-.44.67-.24,1.46-.5,2.37-.75.74-.21,1.32-.4,1.72-.57v-.8c0-.17-.01-.4-.04-.68-.03-.25-.08-.46-.15-.62-.08-.18-.19-.32-.36-.44-.15-.11-.36-.17-.63-.17s-.48.04-.65.11c-.09.04-.17.07-.23.11.03.1.07.22.11.36.12.33.17.66.17.98,0,.17-.04.36-.12.58-.09.25-.22.45-.39.6-.2.18-.43.31-.67.4-.25.1-.61.14-1.08.14-.7,0-1.25-.18-1.63-.54-.39-.36-.58-.84-.58-1.41,0-.5.2-.96.59-1.35.35-.35.78-.64,1.28-.87.48-.23,1.03-.4,1.65-.53.61-.12,1.19-.19,1.72-.19.72,0,1.38.04,1.98.13.63.09,1.2.28,1.71.56.51.29.92.71,1.21,1.25.29.53.44,1.22.44,2.06s-.02,1.79-.05,2.91c-.03,1.11-.05,1.84-.05,2.2,0,.33.06.5.1.59.06.11.15.2.27.25.04.02.15.06.44.07.26.01.49.02.7.02h.38v1.41l-.23.1c-.34.15-.73.28-1.17.4-.46.12-.95.19-1.47.19-.97,0-1.67-.15-2.15-.45-.34-.22-.61-.5-.8-.85-.13.12-.27.23-.39.33-.25.19-.51.35-.8.48-.36.17-.71.3-1.05.38-.35.09-.81.13-1.41.13ZM134.56,36.19c-.22.09-.45.18-.67.28-.37.17-.67.34-.9.51-.22.17-.39.38-.52.64-.13.26-.19.58-.19.95,0,.46.09.78.27.96.19.18.41.27.69.27.32,0,.59-.06.78-.19.18-.12.35-.26.51-.43l.04-3Z"/>
    <path class="cls-2" d="M133.55,30.48c.7,0,1.34.04,1.92.12.58.08,1.11.25,1.58.51.45.25.8.62,1.06,1.1s.39,1.1.39,1.88c0,.81-.02,1.78-.05,2.9-.03,1.12-.05,1.85-.05,2.21,0,.32.05.58.15.77.1.19.25.33.45.42.12.06.32.09.58.1.26.01.5.02.72.02v.79c-.32.14-.69.26-1.12.38-.43.12-.89.17-1.37.17-.88,0-1.54-.13-1.95-.39-.42-.26-.7-.64-.85-1.13h-.06c-.25.25-.48.45-.71.63-.23.17-.47.32-.73.44-.34.16-.67.28-.98.36-.31.08-.75.12-1.32.12-.84,0-1.55-.25-2.14-.74-.59-.49-.89-1.15-.89-1.96,0-.47.06-.87.19-1.2.13-.33.31-.62.55-.87.22-.23.47-.42.75-.57.28-.15.6-.29.94-.42.65-.24,1.43-.48,2.34-.74.91-.26,1.57-.49,1.99-.69v-1.04c0-.18-.01-.42-.04-.71-.03-.3-.09-.54-.18-.75-.1-.23-.26-.43-.48-.58-.22-.16-.5-.24-.85-.24-.32,0-.58.05-.79.14-.21.09-.38.18-.51.28.02.14.08.36.18.66.1.3.15.58.15.85,0,.12-.03.28-.1.46-.07.18-.16.33-.28.44-.17.14-.35.26-.56.34-.21.08-.52.12-.95.12-.61,0-1.07-.15-1.38-.44-.31-.29-.47-.67-.47-1.14,0-.4.16-.77.48-1.09s.71-.59,1.17-.79c.45-.22.98-.38,1.57-.5.59-.12,1.14-.18,1.64-.18M133.24,40.18c.4,0,.73-.08.98-.24.26-.16.48-.36.68-.6l.04-3.67c-.41.14-.81.29-1.2.47-.4.18-.72.36-.98.56-.27.2-.48.46-.63.77-.15.32-.23.68-.23,1.11,0,.56.13.97.39,1.23.26.25.57.38.95.38M133.55,29.73c-.55,0-1.15.06-1.79.19-.65.13-1.23.32-1.74.56-.53.24-1,.56-1.38.94-.46.46-.7,1.02-.7,1.62,0,.67.24,1.26.7,1.69.43.4,1.02.62,1.77.64-.02,0-.04.01-.05.02-.38.15-.73.3-1.03.47-.35.19-.67.43-.94.72-.3.32-.54.69-.7,1.11-.16.42-.25.91-.25,1.47,0,1.05.39,1.9,1.16,2.54.72.61,1.61.92,2.62.92.63,0,1.12-.05,1.5-.14.36-.09.73-.23,1.11-.4.31-.14.6-.32.87-.53.03-.02.06-.05.09-.07.19.24.42.44.68.61.54.34,1.31.51,2.35.51.54,0,1.07-.07,1.56-.2.46-.12.88-.26,1.23-.41l.45-.2v-2.03h-.75c-.21,0-.44,0-.69-.02-.22,0-.3-.04-.3-.04-.06-.03-.08-.06-.09-.08-.01-.03-.06-.14-.06-.42,0-.35.02-1.08.05-2.18.03-1.12.05-2.1.05-2.92,0-.9-.16-1.65-.49-2.24-.33-.6-.79-1.07-1.35-1.39-.55-.31-1.17-.51-1.84-.6-.62-.09-1.3-.13-2.03-.13h0ZM132.96,32.14c.09-.03.23-.05.42-.05.13,0,.31.02.41.09.11.08.18.17.23.28.06.14.1.31.12.52.03.27.04.49.04.64v.54c-.37.14-.85.29-1.45.46-.05.01-.11.03-.16.04.19-.19.34-.42.43-.69.1-.27.14-.5.14-.71,0-.36-.07-.73-.19-1.1,0,0,0-.02,0-.03h0ZM133.24,39.43c-.18,0-.31-.05-.42-.16-.1-.1-.16-.35-.16-.69,0-.31.05-.57.15-.79.1-.21.23-.37.41-.5.21-.16.48-.32.83-.47.05-.02.09-.04.14-.06l-.03,2.28c-.1.1-.21.19-.33.26-.13.08-.33.13-.58.13h0Z"/>
  </g>
  <g>
    <path class="cls-1" d="M140.76,41.89v-1.51l.34-.03c.17-.01.35-.03.53-.06.16-.02.29-.05.4-.09.2-.07.25-.16.26-.19.06-.11.09-.27.09-.47v-6.29c0-.19-.04-.36-.13-.51-.1-.16-.21-.29-.34-.38-.09-.06-.22-.11-.38-.16-.18-.05-.37-.09-.58-.1l-.34-.03v-1.49l5.68-.31.39.39v.84c.34-.32.7-.58,1.06-.8.61-.36,1.27-.54,1.94-.54.77,0,1.41.25,1.88.73.48.48.72,1.11.72,1.87,0,.63-.2,1.2-.59,1.68-.41.5-.96.76-1.63.76-.6,0-1.13-.16-1.56-.47-.46-.34-.7-.83-.7-1.48,0-.19,0-.35.03-.49-.12.05-.24.1-.36.18-.29.17-.55.39-.79.67v5.8c0,.19.03.35.08.47.04.09.12.16.23.22.07.03.25.1.66.16.34.05.58.08.74.09l.36.02v1.52h-7.98Z"/>
    <path class="cls-2" d="M149.68,30.55c.67,0,1.21.21,1.62.62.41.41.61.95.61,1.61,0,.55-.17,1.03-.51,1.44-.34.41-.79.62-1.34.62-.53,0-.97-.13-1.34-.4-.36-.26-.55-.66-.55-1.17,0-.25.02-.45.05-.59s.07-.27.1-.39c-.33.01-.68.13-1.05.34-.37.21-.69.5-.97.86v5.94c0,.25.04.46.12.63.08.17.21.3.4.39.16.08.42.15.77.2.36.05.61.08.77.09v.79h-7.23v-.79c.18-.01.36-.03.55-.06s.34-.06.47-.1c.23-.08.39-.2.48-.37.09-.17.13-.38.13-.65v-6.29c0-.26-.06-.49-.18-.7-.12-.21-.27-.37-.44-.49-.13-.09-.29-.16-.49-.22-.2-.06-.42-.1-.65-.12v-.79l5.16-.28.16.16v1.57h.04c.5-.58,1.03-1.03,1.58-1.36s1.14-.49,1.75-.49M149.68,29.8c-.74,0-1.45.2-2.13.6-.17.1-.33.21-.5.33v-.2l-.22-.22-.16-.16-.24-.24-.33.02-5.16.28-.71.04v2.18l.68.06c.19.02.36.05.51.09.15.04.24.09.29.12.07.05.15.14.22.25.05.09.08.19.08.31v6.29c0,.16-.02.25-.04.28,0,0,0,0,0,0,0,0-.03.01-.06.02-.05.02-.16.05-.33.07-.17.02-.34.04-.5.05l-.69.06v2.23h8.73v-2.26l-.72-.03c-.09,0-.28-.02-.69-.08-.4-.06-.53-.12-.55-.13-.03-.02-.05-.03-.06-.04-.01-.03-.05-.12-.05-.3v-5.66c.12-.13.24-.24.37-.34.05.86.48,1.35.85,1.62.49.36,1.09.54,1.78.54.78,0,1.44-.31,1.92-.9.45-.55.68-1.2.68-1.92,0-.86-.28-1.57-.83-2.13-.55-.56-1.28-.85-2.15-.85h0Z"/>
  </g>
  <g>
    <path class="cls-1" d="M156.53,46.69c-.78,0-1.42-.23-1.91-.67-.5-.46-.75-.98-.75-1.56,0-.23.03-.46.08-.66.06-.22.18-.45.37-.68.14-.19.37-.37.67-.51.29-.13.62-.2.97-.2.49,0,.95.17,1.38.5.3.23.61.53.93.89.17-.19.35-.43.57-.72.29-.39.52-.8.67-1.21-.83-1.74-1.56-3.25-2.21-4.54-.66-1.32-1.4-2.79-2.23-4.42-.15-.29-.34-.5-.59-.66-.25-.16-.53-.26-.81-.3l-.33-.04v-1.49h7.37v1.53h-.36c-.21.02-.46.07-.75.16-.19.06-.24.11-.24.11.06.05.09.14.14.25.24.49.58,1.19,1.03,2.08.36.71.76,1.52,1.21,2.42.31-.71.58-1.34.82-1.9.31-.74.62-1.46.91-2.17.08-.19.09-.28.1-.32,0-.09.01-.14.01-.17-.14-.12-.26-.19-.41-.25-.15-.06-.31-.11-.45-.14-.15-.03-.28-.06-.38-.07l-.33-.04v-1.49h5.21v1.49l-.32.05c-.27.04-.54.15-.8.31-.25.16-.46.41-.63.76-.62,1.3-1.25,2.7-1.91,4.18-.66,1.48-1.39,3.09-2.19,4.81-.45.98-.9,1.78-1.33,2.38-.43.6-.85,1.07-1.24,1.4-.38.31-.76.55-1.14.69-.38.14-.77.22-1.16.22Z"/>
    <path class="cls-2" d="M166.87,30.79v.79c-.32.05-.64.17-.95.37-.31.19-.56.5-.76.91-.62,1.31-1.26,2.71-1.91,4.19-.66,1.48-1.38,3.08-2.18,4.81-.45.97-.88,1.74-1.3,2.31-.42.58-.81,1.02-1.18,1.33-.35.29-.69.5-1.03.63-.34.13-.68.19-1.03.19-.68,0-1.24-.19-1.66-.57s-.63-.81-.63-1.29c0-.2.02-.39.07-.56.05-.17.15-.35.3-.54.12-.16.29-.29.53-.41.24-.11.51-.17.82-.17.4,0,.79.14,1.16.42.37.28.75.67,1.15,1.17.24-.24.53-.59.88-1.07.35-.47.61-.96.77-1.46-.86-1.8-1.62-3.36-2.28-4.68-.66-1.32-1.4-2.8-2.23-4.42-.18-.35-.42-.61-.72-.81-.3-.19-.62-.31-.96-.35v-.79h6.62v.79c-.24,0-.53.06-.85.16-.32.1-.48.23-.48.39,0,.06.01.12.03.19.02.07.06.17.12.3.24.5.59,1.2,1.04,2.1.45.89.97,1.94,1.57,3.14.45-1.02.83-1.9,1.14-2.64.31-.74.62-1.46.91-2.17.07-.18.11-.32.12-.43s.02-.17.02-.21c0-.13-.06-.24-.19-.34-.13-.1-.28-.18-.45-.25-.18-.07-.35-.13-.52-.16-.17-.04-.3-.06-.41-.08v-.79h4.46M167.62,30.04h-5.96v2.2l.65.09c.09.01.21.03.35.07.12.03.26.07.4.13.05.02.1.04.14.07,0,.04-.03.1-.07.19-.29.7-.59,1.42-.91,2.15-.15.35-.31.74-.49,1.16-.31-.62-.59-1.19-.86-1.71-.41-.82-.74-1.48-.98-1.97.18-.05.33-.07.47-.08l.73-.02v-2.27h-8.12v2.2l.65.08c.23.03.45.11.66.24.19.12.34.29.46.52.82,1.62,1.56,3.09,2.22,4.41.62,1.24,1.34,2.71,2.14,4.38-.14.33-.33.66-.56.98-.1.13-.19.26-.28.37-.23-.24-.46-.45-.69-.62-.5-.38-1.04-.58-1.61-.58-.41,0-.79.08-1.13.24-.36.17-.64.38-.83.64-.19.24-.34.51-.41.79-.06.24-.1.49-.1.76,0,.69.3,1.31.88,1.84.56.51,1.29.77,2.16.77.44,0,.87-.08,1.3-.24.41-.16.83-.41,1.24-.75.42-.36.85-.83,1.31-1.47.44-.61.91-1.43,1.37-2.44.8-1.72,1.53-3.34,2.19-4.82.65-1.47,1.29-2.87,1.91-4.17.13-.27.3-.48.49-.6.22-.14.44-.22.66-.26l.63-.1v-2.18h0Z"/>
  </g>
  <g>
    <path class="cls-1" d="M69.39,63.61c-1.15,0-2.16-.17-3-.5-.85-.33-1.56-.79-2.12-1.35-.56-.57-.98-1.25-1.26-2.02-.27-.76-.41-1.59-.41-2.48,0-.81.15-1.59.45-2.33.3-.74.72-1.41,1.27-1.99.54-.57,1.23-1.03,2.05-1.38.82-.35,1.74-.52,2.74-.52,1.09,0,2,.14,2.71.41.72.27,1.33.66,1.81,1.14.46.46.81,1.02,1.02,1.65.21.61.31,1.27.31,1.94v1.1h-7.58c.04,1.26.31,2.24.81,2.9.52.71,1.34,1.05,2.51,1.05.63,0,1.18-.17,1.68-.51.52-.36.97-.82,1.34-1.36l.22-.32,1.45,1.05-.18.3c-.27.45-.61.88-1,1.27-.39.4-.85.75-1.34,1.03-.52.3-1.06.53-1.6.68-.54.16-1.17.23-1.87.23ZM68.94,52.7c-.44,0-.78.22-1.06.69-.28.47-.44,1.21-.49,2.2l2.83-.03c0-.32-.03-.64-.06-.98-.04-.44-.11-.79-.21-1.06-.1-.29-.24-.5-.41-.64-.15-.12-.35-.18-.6-.18Z"/>
    <path class="cls-2" d="M69.11,51.42c1.05,0,1.91.13,2.58.38.67.25,1.23.61,1.67,1.05.43.43.74.93.93,1.51.19.58.29,1.19.29,1.82v.73h-7.58c0,1.53.3,2.7.89,3.5.59.8,1.53,1.2,2.82,1.2.7,0,1.34-.19,1.9-.58.56-.39,1.04-.87,1.44-1.46l.85.62c-.26.43-.58.83-.95,1.21-.37.38-.79.7-1.26.97-.5.28-1.01.5-1.52.65-.51.15-1.1.22-1.77.22-1.11,0-2.06-.16-2.87-.47-.8-.31-1.47-.74-1.99-1.27-.52-.53-.91-1.16-1.17-1.88-.26-.72-.39-1.51-.39-2.35,0-.76.14-1.49.42-2.19.28-.7.68-1.32,1.19-1.87.51-.53,1.15-.96,1.92-1.29.77-.33,1.64-.49,2.6-.49M67,55.97l3.6-.04c0-.45-.02-.91-.07-1.38-.04-.47-.12-.86-.24-1.16-.13-.35-.3-.62-.52-.8-.22-.18-.5-.27-.84-.27-.58,0-1.04.29-1.38.88-.34.58-.53,1.51-.56,2.77M69.11,50.67c-1.05,0-2.03.19-2.89.55-.86.37-1.6.86-2.17,1.46-.58.62-1.03,1.32-1.35,2.11-.31.79-.47,1.62-.47,2.47,0,.93.14,1.8.43,2.6.29.82.75,1.55,1.34,2.15.6.6,1.35,1.09,2.25,1.44.89.35,1.94.52,3.14.52.73,0,1.4-.08,1.97-.25.57-.16,1.13-.4,1.68-.71.53-.3,1.01-.67,1.43-1.1.41-.42.76-.87,1.05-1.34l.36-.59-.56-.41-.85-.62-.63-.46-.43.65c-.34.51-.76.93-1.24,1.26-.44.3-.92.45-1.47.45-1.04,0-1.77-.29-2.21-.9-.4-.54-.63-1.31-.71-2.3h7.56v-1.48c0-.71-.11-1.41-.33-2.06-.23-.69-.6-1.29-1.11-1.8-.51-.52-1.16-.93-1.94-1.23-.76-.29-1.71-.43-2.85-.43h0ZM67.79,55.21c.08-.89.26-1.37.41-1.63.26-.45.52-.51.73-.51.24,0,.33.08.36.1.11.09.21.25.29.47.09.24.16.57.19.97.02.19.03.38.04.57l-2.04.03h0Z"/>
  </g>
  <g>
    <path class="cls-1" d="M81.65,68.23c-2.01,0-3.58-.25-4.65-.75-1.16-.54-1.75-1.38-1.75-2.49,0-.72.33-1.31.99-1.77.41-.28.94-.47,1.6-.58-.26-.16-.49-.34-.69-.53-.46-.46-.69-1-.69-1.61,0-.39.1-.74.3-1.02.18-.25.41-.48.68-.67.23-.16.51-.29.82-.4-.68-.33-1.22-.71-1.6-1.14-.54-.61-.81-1.36-.81-2.22,0-1.23.57-2.22,1.69-2.95,1.07-.7,2.44-1.05,4.06-1.05.53,0,1.05.04,1.54.13.49.09.86.17,1.11.24h4.63s0,1.96,0,1.96h-2.1c.1.17.19.35.26.52.16.4.25.83.25,1.28,0,.58-.16,1.14-.47,1.65-.31.5-.71.91-1.21,1.23-.48.31-1.06.56-1.71.73-.65.17-1.35.26-2.09.26h-1.68s-.08.09-.14.17c-.04.05-.09.13-.09.2,0,.23.09.3.18.35.12.06.44.16,1.27.18.69.01,1.38.04,2.08.08.69.04,1.18.06,1.48.07.48.02.95.12,1.41.29.46.17.87.39,1.21.66.38.29.7.67.95,1.12.25.46.38,1,.38,1.59,0,.63-.15,1.23-.46,1.78-.3.55-.76,1.04-1.38,1.44-.63.4-1.38.72-2.24.94-.85.22-1.91.33-3.16.33ZM80.26,63.46c-.19.18-.34.38-.48.61-.14.25-.21.56-.21.92,0,.13.04.28.12.46s.22.34.4.5c.22.18.48.33.76.44.28.11.72.16,1.32.16.88,0,1.54-.16,1.98-.49.41-.3.61-.79.61-1.5,0-.19-.05-.38-.16-.57-.05-.09-.22-.27-.74-.44-.19-.03-.62-.06-1.22-.07-.59-.01-1.38-.02-2.38-.02ZM81.57,52.67c-.22,0-.41.05-.56.15-.16.1-.29.25-.4.46-.11.21-.18.47-.22.77-.04.32-.06.66-.06,1,0,.75.13,1.36.38,1.83.22.4.5.59.89.59.41,0,.7-.17.92-.53.25-.41.38-1.02.38-1.8s-.12-1.45-.37-1.9c-.21-.39-.51-.57-.95-.57Z"/>
    <path class="cls-2" d="M81.62,51.42c.51,0,1,.04,1.48.13.47.09.84.16,1.08.23h4.35v1.22h-2.47c.29.33.51.67.66,1.04.15.36.22.74.22,1.14,0,.52-.14,1-.42,1.45-.28.45-.64.82-1.09,1.11-.46.29-.99.52-1.6.68-.61.16-1.28.25-2,.25h-1.83c-.09.07-.19.18-.3.32-.11.15-.16.29-.16.42,0,.33.13.56.39.69.26.13.74.2,1.42.22.68.01,1.37.04,2.06.08.7.04,1.19.07,1.49.07.43.02.86.11,1.29.26.43.15.8.35,1.11.6.34.26.63.6.85,1,.22.41.34.88.34,1.41,0,.57-.14,1.1-.41,1.6-.27.5-.69.93-1.25,1.3-.59.38-1.3.68-2.13.89-.83.21-1.85.31-3.07.31-1.97,0-3.46-.24-4.49-.72-1.02-.48-1.54-1.2-1.54-2.15,0-.59.28-1.08.83-1.46.55-.38,1.41-.59,2.58-.63v-.13c-.69-.23-1.22-.54-1.61-.93-.38-.39-.58-.83-.58-1.34,0-.31.08-.58.23-.8.15-.22.35-.41.59-.57.21-.14.46-.26.76-.36.3-.1.55-.18.75-.24v-.12c-1.01-.37-1.75-.83-2.23-1.37-.47-.54-.71-1.2-.71-1.97,0-1.1.51-1.98,1.52-2.64,1.01-.66,2.3-.99,3.85-.99M81.59,57.83c.54,0,.95-.24,1.24-.71.29-.47.43-1.14.43-2s-.14-1.57-.42-2.08c-.28-.51-.7-.76-1.28-.76-.29,0-.55.07-.77.21-.22.14-.39.34-.53.6-.13.25-.21.55-.26.89-.04.34-.07.69-.07,1.05,0,.82.14,1.48.43,2.01.28.52.69.79,1.22.79M82.18,66.93c.96,0,1.7-.19,2.21-.56.51-.37.76-.98.76-1.81,0-.25-.07-.51-.21-.76-.14-.25-.46-.45-.95-.61-.27-.04-.71-.07-1.33-.09-.62-.01-1.46-.02-2.54-.02-.26.22-.48.49-.66.8-.17.31-.26.68-.26,1.11,0,.19.05.39.16.62.1.22.27.43.49.63.26.22.55.39.87.51s.81.19,1.46.19M81.62,50.67c-1.7,0-3.13.37-4.26,1.11-1.22.79-1.86,1.92-1.86,3.27,0,.96.3,1.79.9,2.47.28.32.63.6,1.04.87-.07.04-.13.08-.19.12-.31.22-.57.47-.78.76-.24.34-.37.76-.37,1.23,0,.71.27,1.34.79,1.87.03.03.06.06.09.09-.37.12-.68.27-.96.46-.75.52-1.15,1.24-1.15,2.08s.34,2.07,1.97,2.83c1.14.53,2.71.79,4.81.79,1.28,0,2.37-.11,3.25-.34.9-.23,1.69-.56,2.35-.98.67-.44,1.17-.96,1.5-1.57.33-.61.5-1.27.5-1.96,0-.66-.14-1.25-.43-1.77-.27-.5-.63-.91-1.06-1.24-.37-.29-.81-.53-1.31-.71-.49-.18-1-.28-1.51-.31-.31,0-.8-.03-1.49-.07-.7-.04-1.41-.07-2.09-.09-.7-.02-.98-.09-1.07-.12,0,0,0,0,0-.01,0,0,0-.01.01-.02h1.51c.78,0,1.52-.09,2.19-.27.68-.18,1.3-.45,1.81-.78.54-.34.99-.8,1.32-1.35.35-.57.53-1.19.53-1.84,0-.49-.09-.97-.27-1.42,0,0,0,0,0,0h1.87v-2.72h-5.01c-.26-.07-.6-.14-1.05-.22-.52-.09-1.06-.14-1.61-.14h0ZM81.59,57.08c-.17,0-.36-.03-.56-.39-.22-.41-.34-.96-.34-1.65,0-.32.02-.64.06-.95.03-.25.1-.47.19-.65.07-.13.16-.24.26-.3.1-.06.21-.09.36-.09.3,0,.48.1.62.37.22.4.33.97.33,1.72s-.11,1.26-.32,1.6c-.15.25-.33.35-.6.35h0ZM82.18,66.18c-.73,0-1.06-.08-1.19-.14-.24-.09-.47-.22-.66-.39-.13-.11-.23-.24-.29-.37-.08-.16-.09-.26-.09-.3,0-.3.06-.55.16-.74.09-.15.19-.29.31-.42.93,0,1.66,0,2.22.02.65.02.99.05,1.17.07.39.13.47.25.47.25.08.14.12.26.12.39,0,.87-.34,1.12-.46,1.2-.37.27-.97.41-1.76.41h0Z"/>
  </g>
  <g>
    <path class="cls-1" d="M92.6,63.61c-.96,0-1.79-.29-2.46-.86-.7-.58-1.06-1.37-1.06-2.33,0-.53.08-1,.23-1.38s.37-.73.65-1.02c.25-.27.55-.5.88-.67.3-.16.64-.32,1.01-.46.68-.25,1.51-.51,2.46-.78.78-.22,1.38-.42,1.79-.6v-.83c0-.18-.02-.41-.04-.7-.03-.26-.08-.48-.16-.65-.08-.19-.2-.34-.38-.46-.16-.12-.38-.17-.67-.17s-.5.04-.68.11c-.09.04-.18.08-.26.12.03.11.07.24.12.38.12.34.18.68.18,1.01,0,.17-.04.37-.12.6-.09.25-.22.46-.4.61-.21.18-.44.32-.69.42-.26.1-.63.15-1.12.15-.73,0-1.29-.19-1.68-.56-.4-.37-.6-.86-.6-1.46,0-.52.21-.99.61-1.39.36-.36.81-.67,1.33-.9.49-.23,1.07-.42,1.71-.55.63-.13,1.23-.19,1.78-.19.74,0,1.43.04,2.05.13.65.09,1.24.29,1.77.58.53.3.95.73,1.25,1.29.3.55.46,1.27.46,2.13s-.02,1.85-.05,3.02c-.03,1.15-.05,1.91-.05,2.28,0,.27.04.48.11.62.06.12.16.21.29.27.04.02.15.06.46.07.27.01.51.02.73.02h.38v1.44l-.23.1c-.34.15-.75.29-1.22.41-.48.13-.99.19-1.52.19-1,0-1.73-.15-2.23-.47-.36-.23-.64-.53-.84-.89-.14.13-.28.25-.42.35-.26.2-.53.36-.83.5-.37.17-.73.31-1.08.39-.36.09-.84.14-1.46.14ZM96.09,57.33c-.24.09-.48.19-.72.3-.38.17-.7.35-.94.53-.23.18-.41.4-.54.67-.13.28-.2.6-.2.99,0,.48.1.82.29,1,.19.19.43.29.72.29.34,0,.62-.07.82-.19.19-.12.37-.27.53-.45l.04-3.14Z"/>
    <path class="cls-2" d="M95.03,51.42c.73,0,1.39.04,2,.13s1.15.26,1.64.53c.46.26.83.64,1.11,1.14.27.5.41,1.15.41,1.95,0,.85-.02,1.85-.05,3.01-.03,1.16-.05,1.92-.05,2.29,0,.34.05.6.15.8.1.19.26.34.47.44.13.06.33.1.6.11s.52.02.75.02v.82c-.33.14-.72.27-1.16.39-.45.12-.92.18-1.42.18-.92,0-1.59-.14-2.03-.41-.43-.27-.73-.66-.88-1.17h-.07c-.25.25-.5.47-.74.65-.24.18-.49.33-.76.46-.35.16-.69.29-1.02.37-.33.08-.78.12-1.37.12-.87,0-1.61-.26-2.22-.77-.62-.51-.92-1.19-.92-2.04,0-.49.07-.9.2-1.24.14-.34.33-.64.57-.91.23-.24.49-.44.78-.59.3-.16.62-.3.97-.44.67-.25,1.48-.5,2.43-.77.94-.27,1.63-.5,2.07-.71v-1.08c0-.19-.01-.43-.04-.74-.03-.31-.09-.56-.19-.77-.1-.24-.27-.44-.49-.61-.22-.16-.52-.25-.89-.25-.33,0-.6.05-.82.14-.22.09-.4.19-.53.29.02.15.09.38.19.68.11.31.16.6.16.89,0,.13-.03.29-.1.48-.07.19-.17.34-.29.45-.17.15-.37.27-.58.35-.21.08-.54.12-.98.12-.63,0-1.11-.15-1.43-.45-.32-.3-.48-.7-.48-1.18,0-.42.17-.79.5-1.13.33-.33.74-.61,1.22-.82.47-.22,1.01-.4,1.63-.52s1.18-.19,1.71-.19M94.71,61.48c.41,0,.75-.08,1.02-.25.27-.17.5-.38.7-.62l.04-3.81c-.42.14-.84.3-1.25.49-.41.18-.75.38-1.01.58-.28.21-.49.48-.65.8-.16.33-.24.71-.24,1.15,0,.59.13,1.01.4,1.27.27.26.59.39.98.39M95.03,50.67c-.57,0-1.19.07-1.85.2-.67.13-1.28.33-1.8.58-.55.25-1.03.58-1.43.97-.47.47-.72,1.04-.72,1.66,0,.69.25,1.29.72,1.73.46.44,1.12.66,1.94.66.01,0,.02,0,.03,0-.07.02-.14.05-.2.07-.4.15-.75.31-1.07.48-.36.19-.69.44-.97.74-.31.33-.55.71-.72,1.14-.17.43-.26.94-.26,1.52,0,1.08.4,1.96,1.19,2.61.75.63,1.66.94,2.7.94.65,0,1.16-.05,1.55-.15.37-.09.76-.23,1.15-.42.32-.15.62-.33.89-.54.04-.03.08-.06.11-.09.2.25.44.47.72.65.56.35,1.35.53,2.43.53.56,0,1.11-.07,1.61-.2.48-.13.91-.27,1.27-.43l.45-.2v-2.06h-.75c-.22,0-.45,0-.72-.02-.24,0-.32-.04-.32-.04-.06-.03-.09-.06-.11-.1-.02-.03-.07-.15-.07-.45,0-.36.02-1.12.05-2.27.03-1.16.05-2.18.05-3.03,0-.92-.17-1.7-.5-2.31-.34-.62-.81-1.1-1.39-1.43-.57-.32-1.21-.52-1.9-.62-.64-.09-1.35-.14-2.1-.14h0ZM94.38,53.12c.09-.03.25-.06.48-.06.14,0,.33.02.44.1.12.09.2.18.25.3.07.15.11.33.13.55.03.28.04.51.04.67v.58c-.38.15-.89.31-1.52.49-.09.03-.19.05-.28.08,0,0,.02-.01.03-.02.23-.2.4-.46.51-.77.1-.28.14-.51.14-.73,0-.37-.07-.75-.2-1.13,0-.02-.01-.04-.02-.06h0ZM94.71,60.73c-.19,0-.33-.05-.46-.18-.11-.11-.18-.38-.18-.74,0-.33.05-.61.16-.83.11-.22.25-.39.43-.53.22-.17.51-.33.86-.49.06-.03.12-.05.18-.08l-.03,2.42c-.11.11-.23.2-.36.28-.14.09-.35.14-.62.14h0Z"/>
  </g>
  <g>
    <path class="cls-1" d="M109.31,63.61c-1.08,0-2.05-.16-2.89-.48-.84-.32-1.55-.77-2.1-1.33-.55-.57-.97-1.25-1.24-2.02-.27-.76-.4-1.6-.4-2.49,0-.83.17-1.62.5-2.37.33-.74.78-1.41,1.34-1.97.58-.58,1.31-1.05,2.16-1.39.85-.34,1.8-.52,2.83-.52,1.44,0,2.61.28,3.47.84.91.59,1.37,1.4,1.37,2.42,0,.63-.17,1.15-.52,1.55-.36.41-.95.62-1.75.62-.64,0-1.18-.16-1.63-.47-.47-.34-.72-.81-.72-1.36,0-.41.07-.81.2-1.21.08-.25.14-.45.17-.6-.03-.03-.06-.06-.1-.08-.02-.01-.13-.06-.41-.06s-.51.06-.74.19c-.22.12-.43.36-.64.7-.21.34-.38.81-.51,1.39-.13.6-.2,1.33-.2,2.19,0,1.24.29,2.25.86,2.99.55.72,1.19,1.08,1.94,1.08s1.33-.16,1.75-.48c.45-.34.85-.83,1.21-1.46l.2-.36,1.45,1.01-.15.29c-.24.48-.54.92-.88,1.32-.34.4-.76.76-1.24,1.08-.5.32-1.01.57-1.53.74-.52.17-1.13.25-1.81.25Z"/>
    <path class="cls-2" d="M109.5,51.42c1.38,0,2.46.26,3.26.78.8.52,1.2,1.22,1.2,2.1,0,.54-.14.97-.43,1.3s-.77.49-1.47.49c-.56,0-1.03-.13-1.41-.4-.38-.27-.57-.62-.57-1.05,0-.37.06-.73.18-1.09.12-.36.19-.63.21-.82-.08-.13-.19-.24-.31-.31-.13-.07-.33-.11-.59-.11-.34,0-.64.08-.92.24-.28.16-.53.43-.77.83-.23.37-.42.88-.56,1.5s-.21,1.38-.21,2.27c0,1.33.31,2.4.94,3.22.62.82,1.37,1.22,2.24,1.22s1.49-.19,1.98-.56c.49-.37.93-.9,1.31-1.58l.84.58c-.23.46-.51.87-.83,1.25-.32.38-.71.71-1.16,1-.47.31-.95.54-1.44.7-.49.16-1.05.24-1.69.24-1.04,0-1.96-.15-2.75-.45s-1.45-.72-1.97-1.24c-.52-.53-.9-1.16-1.16-1.88-.25-.73-.38-1.51-.38-2.37,0-.78.16-1.52.47-2.22.31-.7.73-1.32,1.26-1.85.55-.55,1.22-.98,2.04-1.31.81-.33,1.71-.49,2.69-.49M109.5,50.67c-1.07,0-2.07.18-2.97.54-.9.36-1.67.86-2.29,1.47-.59.59-1.07,1.29-1.42,2.08-.35.8-.53,1.65-.53,2.52,0,.93.14,1.81.42,2.62.29.83.74,1.55,1.33,2.16.59.6,1.35,1.08,2.24,1.42.88.33,1.89.5,3.02.5.72,0,1.37-.09,1.92-.27.55-.18,1.09-.44,1.61-.78.51-.33.95-.72,1.32-1.15.36-.42.67-.89.93-1.4l.3-.58-.54-.37-.84-.58-.68-.47-.4.72c-.33.59-.7,1.04-1.1,1.34-.35.27-.87.4-1.53.4s-1.16-.3-1.64-.93c-.52-.68-.78-1.61-.78-2.76,0-.82.06-1.53.19-2.1.12-.54.27-.97.46-1.27.22-.36.4-.51.51-.57.16-.09.34-.14.55-.14.02,0,.04,0,.06,0-.02.07-.05.15-.08.25-.14.43-.22.88-.22,1.33,0,.68.3,1.25.88,1.67.51.36,1.13.54,1.84.54.92,0,1.61-.25,2.04-.75.4-.47.61-1.07.61-1.79,0-1.13-.53-2.08-1.54-2.73-.92-.6-2.16-.9-3.67-.9h0Z"/>
  </g>
  <g>
    <path class="cls-1" d="M119.06,68.23c-.8,0-1.47-.23-1.97-.69-.52-.47-.78-1.01-.78-1.61,0-.24.03-.47.08-.68.06-.23.19-.46.38-.7.15-.2.38-.38.69-.52.3-.14.64-.21,1-.21.5,0,.98.17,1.43.51.32.24.64.56.98.94.18-.21.38-.46.6-.76.31-.42.54-.84.7-1.27-.86-1.81-1.63-3.38-2.3-4.71-.69-1.37-1.46-2.9-2.31-4.59-.15-.29-.36-.53-.62-.69-.27-.17-.55-.27-.85-.31l-.33-.04v-1.52h7.62v1.56h-.36c-.22.02-.48.07-.78.16-.21.07-.26.12-.26.12.06.07.09.16.15.28.25.51.61,1.23,1.07,2.16.38.74.8,1.59,1.27,2.54.33-.75.61-1.42.86-2,.32-.76.64-1.51.94-2.25.08-.19.1-.29.1-.34,0-.09.02-.15.02-.18-.16-.14-.29-.21-.43-.27-.16-.07-.32-.12-.47-.15-.16-.03-.29-.06-.39-.07l-.33-.04v-1.52h5.38v1.51l-.32.05c-.29.04-.57.16-.84.33-.26.16-.48.43-.65.79-.64,1.35-1.3,2.8-1.98,4.33-.68,1.54-1.44,3.2-2.27,4.99-.47,1.02-.94,1.85-1.38,2.46-.45.62-.88,1.11-1.28,1.45-.39.33-.79.57-1.17.71-.39.15-.79.23-1.2.23Z"/>
    <path class="cls-2" d="M129.79,51.74v.82c-.34.05-.67.18-.98.38-.32.2-.58.52-.79.94-.64,1.36-1.31,2.81-1.99,4.35-.68,1.54-1.44,3.2-2.27,4.99-.46,1-.91,1.8-1.35,2.4-.43.6-.84,1.06-1.22,1.38-.36.3-.71.52-1.07.65-.35.13-.71.2-1.07.2-.71,0-1.28-.2-1.72-.59-.44-.4-.66-.84-.66-1.34,0-.21.02-.4.07-.58.05-.18.15-.37.31-.56.12-.16.3-.3.55-.42.25-.12.53-.17.85-.17.42,0,.82.15,1.2.44.38.29.78.7,1.19,1.21.25-.25.55-.62.91-1.11.36-.49.63-.99.8-1.51-.89-1.87-1.68-3.49-2.37-4.86-.69-1.37-1.46-2.9-2.31-4.59-.19-.36-.44-.64-.75-.84-.31-.2-.65-.32-1-.36v-.82h6.87v.82c-.25,0-.55.06-.88.17-.33.1-.5.24-.5.4,0,.06.01.13.03.2.02.07.06.17.12.31.25.52.61,1.25,1.08,2.18.47.93,1.01,2.02,1.63,3.26.46-1.06.86-1.97,1.18-2.74.33-.76.64-1.52.95-2.25.07-.19.12-.33.13-.44.01-.11.02-.18.02-.22,0-.13-.07-.25-.2-.35-.13-.1-.28-.19-.46-.26-.19-.07-.37-.13-.53-.17-.17-.04-.31-.06-.43-.08v-.82h4.63M130.54,50.99h-6.13v2.23l.65.09c.1.01.22.04.37.07.13.03.27.07.42.13.06.03.12.05.17.09,0,.03-.03.1-.07.22-.3.73-.62,1.48-.94,2.24-.16.38-.34.8-.54,1.26-.33-.66-.64-1.27-.91-1.82-.44-.87-.78-1.57-1.03-2.08.2-.05.38-.08.52-.09l.73-.02v-2.3h-8.37v2.23l.66.08c.24.03.47.11.69.25.2.13.36.31.49.55.85,1.68,1.62,3.21,2.3,4.58.65,1.3,1.4,2.83,2.22,4.56-.14.35-.34.69-.59,1.03-.11.16-.22.29-.31.41-.25-.26-.49-.48-.73-.66-.51-.39-1.07-.59-1.65-.59-.42,0-.81.08-1.16.24-.37.17-.65.39-.85.66-.2.24-.35.53-.43.81-.07.24-.1.5-.1.78,0,.71.3,1.35.9,1.89.58.52,1.33.79,2.23.79.45,0,.9-.08,1.34-.25.43-.16.86-.42,1.28-.77.44-.37.88-.86,1.35-1.52.46-.63.94-1.48,1.42-2.53.83-1.78,1.59-3.46,2.27-5,.68-1.53,1.34-2.98,1.98-4.33.14-.29.32-.51.51-.63.23-.15.46-.24.7-.27l.63-.1v-2.21h0Z"/>
  </g>
</svg>